<?xml version="1.0" encoding="UTF-8"?>
<svg width="100px" height="100px" viewBox="0 0 100 100" version="1.1" xmlns="http://www.w3.org/2000/svg" xmlns:xlink="http://www.w3.org/1999/xlink">
    <!-- Generator: Sketch 42 (36781) - http://www.bohemiancoding.com/sketch -->
    <title>Logo - full - black</title>
    <desc>Created with Sketch.</desc>
    <defs></defs>
    <g id="Guidelines" stroke="none" stroke-width="1" fill="none" fill-rule="evenodd">
        <g id="Logo---full---black" fill="#000000">
            <g id="Group" transform="translate(3.000000, 26.000000)">
                <polygon id="M" points="66.8057377 30.784 63.3221311 30.784 60.5352459 10.3741639 50.4532787 30.784 49.3877049 30.784 39.1827869 10.2102295 36.3959016 30.784 32.9942623 30.784 37.2565574 0.784 38.1172131 0.784 49.9204918 24.5954754 61.6418033 0.784 62.502459 0.784"></polygon>
                <path d="M0.92,42.9898698 L0.92,48.5716397 L1.80510923,48.5716397 L1.80510923,44.4012602 L3.56735372,47.9895408 L4.18134841,47.9895408 L5.94359291,44.4012602 L5.95156686,48.5716397 L6.82072818,48.5716397 L6.82072818,42.9898698 L5.71234815,42.9898698 L3.87833805,46.6977598 L2.03635398,42.9898698 L0.92,42.9898698 Z M14.0291853,48.5716397 L13.4949302,47.3117545 L10.6801234,47.3117545 L10.1458682,48.5716397 L9.16507153,48.5716397 L11.6290242,42.9898698 L12.593873,42.9898698 L15.0339039,48.5716397 L14.0291853,48.5716397 Z M11.0309775,46.474489 L13.1361021,46.474489 L12.0835398,43.9945884 L11.0309775,46.474489 Z M22.2264131,48.5716397 L19.9219395,45.3740829 L22.0828819,42.9898698 L20.9745018,42.9898698 L18.3112002,45.8764422 L18.3112002,42.9898698 L17.3702733,42.9898698 L17.3702733,48.5716397 L18.3112002,48.5716397 L18.3112002,47.1522753 L19.2601011,46.107687 L21.0941112,48.5716397 L22.2264131,48.5716397 Z M29.2993129,48.5716397 L28.2308027,48.5716397 L27.2101362,46.8811608 C27.1303966,46.8891348 27.0426831,46.8891348 26.9549696,46.8891348 L25.6312927,46.8891348 L25.6312927,48.5716397 L24.6903658,48.5716397 L24.6903658,42.9898698 L26.9549696,42.9898698 C28.3823079,42.9898698 29.2036255,43.683604 29.2036255,44.8956455 C29.2036255,45.7887287 28.7889797,46.4186713 28.0474017,46.7057337 L29.2993129,48.5716397 Z M25.6312927,46.0438953 L26.9549696,46.0438953 C27.8161569,46.0438953 28.3105423,45.6770933 28.3105423,44.9195674 C28.3105423,44.1859633 27.8161569,43.8351092 26.9549696,43.8351092 L25.6312927,43.8351092 L25.6312927,46.0438953 Z M34.5461766,42.9659479 C36.2127337,42.9659479 37.5045147,44.1859633 37.5045147,45.7807547 C37.5045147,47.3755461 36.2127337,48.6115095 34.5461766,48.6115095 C32.8796196,48.6115095 31.5878386,47.3755461 31.5878386,45.7807547 C31.5878386,44.1779894 32.8796196,42.9659479 34.5461766,42.9659479 Z M34.5541506,43.8111874 C33.4537445,43.8111874 32.5447134,44.6723747 32.5447134,45.7807547 C32.5447134,46.8891348 33.4617185,47.76627 34.5541506,47.76627 C35.6465827,47.76627 36.5396659,46.8891348 36.5396659,45.7807547 C36.5396659,44.6723747 35.6465827,43.8111874 34.5541506,43.8111874 Z M46.3157372,42.9898698 C47.7191536,42.9898698 48.5245233,43.683604 48.5245233,44.8956455 C48.5245233,46.1555307 47.7191536,46.8891348 46.3157372,46.8891348 L45.0319301,46.8891348 L45.0319301,48.5716397 L44.0910032,48.5716397 L44.0910032,42.9898698 L46.3157372,42.9898698 Z M46.2758674,46.0438953 C47.1370547,46.0438953 47.6234661,45.6770933 47.6234661,44.9195674 C47.6234661,44.1859633 47.1370547,43.8351092 46.2758674,43.8351092 L45.0319301,43.8351092 L45.0319301,46.0438953 L46.2758674,46.0438953 Z M55.6612148,48.5716397 L54.5927045,48.5716397 L53.572038,46.8811608 C53.4922985,46.8891348 53.4045849,46.8891348 53.3168714,46.8891348 L51.9931946,46.8891348 L51.9931946,48.5716397 L51.0522676,48.5716397 L51.0522676,42.9898698 L53.3168714,42.9898698 C54.7442097,42.9898698 55.5655273,43.683604 55.5655273,44.8956455 C55.5655273,45.7887287 55.1508815,46.4186713 54.4093035,46.7057337 L55.6612148,48.5716397 Z M51.9931946,46.0438953 L53.3168714,46.0438953 C54.1780588,46.0438953 54.6724441,45.6770933 54.6724441,44.9195674 C54.6724441,44.1859633 54.1780588,43.8351092 53.3168714,43.8351092 L51.9931946,43.8351092 L51.9931946,46.0438953 Z M58.0773237,42.9898698 L58.0773237,43.8351092 L61.3785419,43.8351092 L57.9736623,47.8938533 L57.9736623,48.5716397 L62.6862709,48.5716397 L62.6862709,47.7264002 L59.2494954,47.7264002 L62.6464011,43.6676561 L62.6464011,42.9898698 L58.0773237,42.9898698 Z M65.3176767,42.9898698 L65.3176767,48.5716397 L69.4003427,48.5716397 L69.4003427,47.7264002 L66.2586036,47.7264002 L66.2586036,46.1874265 L68.9856969,46.1874265 L68.9856969,45.3501611 L66.2586036,45.3501611 L66.2586036,43.8351092 L69.3046552,43.8351092 L69.3046552,42.9898698 L65.3176767,42.9898698 Z M74.3681179,42.9898698 C75.7715343,42.9898698 76.576904,43.683604 76.576904,44.8956455 C76.576904,46.1555307 75.7715343,46.8891348 74.3681179,46.8891348 L73.0843108,46.8891348 L73.0843108,48.5716397 L72.1433839,48.5716397 L72.1433839,42.9898698 L74.3681179,42.9898698 Z M74.3282481,46.0438953 C75.1894354,46.0438953 75.6758468,45.6770933 75.6758468,44.9195674 C75.6758468,44.1859633 75.1894354,43.8351092 74.3282481,43.8351092 L73.0843108,43.8351092 L73.0843108,46.0438953 L74.3282481,46.0438953 Z M79.1046483,42.9898698 L79.1046483,48.5716397 L80.0455753,48.5716397 L80.0455753,42.9898698 L79.1046483,42.9898698 Z M86.5044804,44.3534164 L86.8952043,43.5241249 C86.3768971,43.1812448 85.6672149,42.95 84.9415849,42.95 C83.7295434,42.95 82.9082258,43.5480468 82.9082258,44.5049216 C82.9082258,46.4904369 85.9223816,45.7967026 85.9223816,47.0406399 C85.9223816,47.4712336 85.5316577,47.7184263 84.8777932,47.7184263 C84.2797464,47.7184263 83.5620903,47.4313638 82.9879654,46.9050827 L82.5812936,47.7184263 C83.1554185,48.2447074 83.98471,48.6035355 84.8618453,48.6035355 C86.0898347,48.6035355 86.9669699,47.9895408 86.9669699,46.9927962 C86.9749439,44.983359 83.9607881,45.6372235 83.9607881,44.4172081 C83.9607881,44.0424321 84.3196162,43.8351092 84.8698192,43.8351092 C85.292439,43.8351092 85.8984597,43.9866144 86.5044804,44.3534164 Z M94,42.9898698 L93.0431252,42.9898698 L91.4802296,45.7089891 L89.8854382,42.9898698 L88.9365373,42.9898698 L91.0177401,46.7456035 L91.0177401,48.5716397 L91.9506931,48.5716397 L91.9506931,46.7137077 L94,42.9898698 Z" id="Makro-przepisy"></path>
            </g>
        </g>
    </g>
</svg>