<?xml version="1.0" encoding="UTF-8"?>
<svg width="100px" height="30px" viewBox="0 0 100 30" version="1.1" xmlns="http://www.w3.org/2000/svg" xmlns:xlink="http://www.w3.org/1999/xlink">
    <!-- Generator: Sketch 42 (36781) - http://www.bohemiancoding.com/sketch -->
    <title>Logo - no symbol - black</title>
    <desc>Created with Sketch.</desc>
    <defs></defs>
    <g id="Guidelines" stroke="none" stroke-width="1" fill="none" fill-rule="evenodd">
        <g id="Logo---no-symbol---black" fill="#000000">
            <path d="M3,12.0398698 L3,17.6216397 L3.88510923,17.6216397 L3.88510923,13.4512602 L5.64735372,17.0395408 L6.26134841,17.0395408 L8.02359291,13.4512602 L8.03156686,17.6216397 L8.90072818,17.6216397 L8.90072818,12.0398698 L7.79234815,12.0398698 L5.95833805,15.7477598 L4.11635398,12.0398698 L3,12.0398698 Z M16.1091853,17.6216397 L15.5749302,16.3617545 L12.7601234,16.3617545 L12.2258682,17.6216397 L11.2450715,17.6216397 L13.7090242,12.0398698 L14.673873,12.0398698 L17.1139039,17.6216397 L16.1091853,17.6216397 Z M13.1109775,15.524489 L15.2161021,15.524489 L14.1635398,13.0445884 L13.1109775,15.524489 Z M24.3064131,17.6216397 L22.0019395,14.4240829 L24.1628819,12.0398698 L23.0545018,12.0398698 L20.3912002,14.9264422 L20.3912002,12.0398698 L19.4502733,12.0398698 L19.4502733,17.6216397 L20.3912002,17.6216397 L20.3912002,16.2022753 L21.3401011,15.157687 L23.1741112,17.6216397 L24.3064131,17.6216397 Z M31.3793129,17.6216397 L30.3108027,17.6216397 L29.2901362,15.9311608 C29.2103966,15.9391348 29.1226831,15.9391348 29.0349696,15.9391348 L27.7112927,15.9391348 L27.7112927,17.6216397 L26.7703658,17.6216397 L26.7703658,12.0398698 L29.0349696,12.0398698 C30.4623079,12.0398698 31.2836255,12.733604 31.2836255,13.9456455 C31.2836255,14.8387287 30.8689797,15.4686713 30.1274017,15.7557337 L31.3793129,17.6216397 Z M27.7112927,15.0938953 L29.0349696,15.0938953 C29.8961569,15.0938953 30.3905423,14.7270933 30.3905423,13.9695674 C30.3905423,13.2359633 29.8961569,12.8851092 29.0349696,12.8851092 L27.7112927,12.8851092 L27.7112927,15.0938953 Z M36.6261766,12.0159479 C38.2927337,12.0159479 39.5845147,13.2359633 39.5845147,14.8307547 C39.5845147,16.4255461 38.2927337,17.6615095 36.6261766,17.6615095 C34.9596196,17.6615095 33.6678386,16.4255461 33.6678386,14.8307547 C33.6678386,13.2279894 34.9596196,12.0159479 36.6261766,12.0159479 Z M36.6341506,12.8611874 C35.5337445,12.8611874 34.6247134,13.7223747 34.6247134,14.8307547 C34.6247134,15.9391348 35.5417185,16.81627 36.6341506,16.81627 C37.7265827,16.81627 38.6196659,15.9391348 38.6196659,14.8307547 C38.6196659,13.7223747 37.7265827,12.8611874 36.6341506,12.8611874 Z M48.3957372,12.0398698 C49.7991536,12.0398698 50.6045233,12.733604 50.6045233,13.9456455 C50.6045233,15.2055307 49.7991536,15.9391348 48.3957372,15.9391348 L47.1119301,15.9391348 L47.1119301,17.6216397 L46.1710032,17.6216397 L46.1710032,12.0398698 L48.3957372,12.0398698 Z M48.3558674,15.0938953 C49.2170547,15.0938953 49.7034661,14.7270933 49.7034661,13.9695674 C49.7034661,13.2359633 49.2170547,12.8851092 48.3558674,12.8851092 L47.1119301,12.8851092 L47.1119301,15.0938953 L48.3558674,15.0938953 Z M57.7412148,17.6216397 L56.6727045,17.6216397 L55.652038,15.9311608 C55.5722985,15.9391348 55.4845849,15.9391348 55.3968714,15.9391348 L54.0731946,15.9391348 L54.0731946,17.6216397 L53.1322676,17.6216397 L53.1322676,12.0398698 L55.3968714,12.0398698 C56.8242097,12.0398698 57.6455273,12.733604 57.6455273,13.9456455 C57.6455273,14.8387287 57.2308815,15.4686713 56.4893035,15.7557337 L57.7412148,17.6216397 Z M54.0731946,15.0938953 L55.3968714,15.0938953 C56.2580588,15.0938953 56.7524441,14.7270933 56.7524441,13.9695674 C56.7524441,13.2359633 56.2580588,12.8851092 55.3968714,12.8851092 L54.0731946,12.8851092 L54.0731946,15.0938953 Z M60.1573237,12.0398698 L60.1573237,12.8851092 L63.4585419,12.8851092 L60.0536623,16.9438533 L60.0536623,17.6216397 L64.7662709,17.6216397 L64.7662709,16.7764002 L61.3294954,16.7764002 L64.7264011,12.7176561 L64.7264011,12.0398698 L60.1573237,12.0398698 Z M67.3976767,12.0398698 L67.3976767,17.6216397 L71.4803427,17.6216397 L71.4803427,16.7764002 L68.3386036,16.7764002 L68.3386036,15.2374265 L71.0656969,15.2374265 L71.0656969,14.4001611 L68.3386036,14.4001611 L68.3386036,12.8851092 L71.3846552,12.8851092 L71.3846552,12.0398698 L67.3976767,12.0398698 Z M76.4481179,12.0398698 C77.8515343,12.0398698 78.656904,12.733604 78.656904,13.9456455 C78.656904,15.2055307 77.8515343,15.9391348 76.4481179,15.9391348 L75.1643108,15.9391348 L75.1643108,17.6216397 L74.2233839,17.6216397 L74.2233839,12.0398698 L76.4481179,12.0398698 Z M76.4082481,15.0938953 C77.2694354,15.0938953 77.7558468,14.7270933 77.7558468,13.9695674 C77.7558468,13.2359633 77.2694354,12.8851092 76.4082481,12.8851092 L75.1643108,12.8851092 L75.1643108,15.0938953 L76.4082481,15.0938953 Z M81.1846483,12.0398698 L81.1846483,17.6216397 L82.1255753,17.6216397 L82.1255753,12.0398698 L81.1846483,12.0398698 Z M88.5844804,13.4034164 L88.9752043,12.5741249 C88.4568971,12.2312448 87.7472149,12 87.0215849,12 C85.8095434,12 84.9882258,12.5980468 84.9882258,13.5549216 C84.9882258,15.5404369 88.0023816,14.8467026 88.0023816,16.0906399 C88.0023816,16.5212336 87.6116577,16.7684263 86.9577932,16.7684263 C86.3597464,16.7684263 85.6420903,16.4813638 85.0679654,15.9550827 L84.6612936,16.7684263 C85.2354185,17.2947074 86.06471,17.6535355 86.9418453,17.6535355 C88.1698347,17.6535355 89.0469699,17.0395408 89.0469699,16.0427962 C89.0549439,14.033359 86.0407881,14.6872235 86.0407881,13.4672081 C86.0407881,13.0924321 86.3996162,12.8851092 86.9498192,12.8851092 C87.372439,12.8851092 87.9784597,13.0366144 88.5844804,13.4034164 Z M96.08,12.0398698 L95.1231252,12.0398698 L93.5602296,14.7589891 L91.9654382,12.0398698 L91.0165373,12.0398698 L93.0977401,15.7956035 L93.0977401,17.6216397 L94.0306931,17.6216397 L94.0306931,15.7637077 L96.08,12.0398698 Z" id="Makro-przepisy"></path>
        </g>
    </g>
</svg>