<?xml version="1.0" encoding="UTF-8"?>
<svg width="73px" height="66px" viewBox="0 0 73 66" version="1.1" xmlns="http://www.w3.org/2000/svg" xmlns:xlink="http://www.w3.org/1999/xlink">
    <!-- Generator: Sketch 43.1 (39012) - http://www.bohemiancoding.com/sketch -->
    <title>Fill 20</title>
    <desc>Created with Sketch.</desc>
    <defs></defs>
    <g id="User-Panel" stroke="none" stroke-width="1" fill="none" fill-rule="evenodd">
        <g id="User-panel-[screen_size-large]" transform="translate(-1186.000000, -393.000000)" fill="#FFFFFF">
            <g id="Content" transform="translate(101.000000, 140.000000)">
                <g id="Stats" transform="translate(901.000000, 10.000000)">
                    <g id="box" transform="translate(1.000000, 239.000000)">
                        <g id="top">
                            <path d="M207.101251,72.2825412 C206.50624,72.9364335 205.749461,73.4297968 205.226966,74.1568258 C205.045364,74.1314139 204.949295,74.1915348 204.914586,74.313636 C204.141071,74.3731371 203.842946,74.9080272 203.039061,74.9383976 C202.595902,75.3270142 201.789538,75.3549053 201.320967,75.7193496 C200.818927,75.4677095 200.285896,75.5898107 199.914634,75.8755399 C199.182646,75.6703851 198.201498,75.7150109 197.260017,75.7193496 C197.323237,75.0543008 198.055844,75.0580196 198.040349,74.313636 C197.202375,73.2172043 195.912565,74.7437794 195.384493,75.4069688 C194.684115,75.170204 194.308514,74.6086623 193.978159,74.0012553 C193.861636,73.4143017 194.57503,73.6603635 194.60416,73.2190637 C194.966125,73.1136972 195.021908,72.7002885 195.384493,72.5955417 C195.956571,72.2298579 196.542905,71.8778097 196.790826,71.1892084 C196.856525,70.6543183 196.322875,70.7193976 196.166064,70.4076367 C194.986579,70.5303577 194.341984,71.187349 193.666398,71.81397 C193.226338,71.6559202 193.709785,71.1501608 193.666398,70.8762078 C193.590163,70.3828445 193.947789,70.324583 193.822589,69.7828751 C194.185793,69.3124445 194.376073,68.6703285 194.60416,68.064161 C195.5506,67.0328086 197.013335,66.5165125 198.196539,65.7206853 C198.704158,65.8111766 198.923569,65.614699 199.290492,65.5644949 C201.036477,65.693414 202.069069,66.5357264 203.352062,67.1270186 C204.693316,67.6606691 205.754419,68.4738509 206.78949,69.3136841 C206.809944,69.6049916 206.891758,69.8361782 207.101251,69.9390655 L207.101251,72.2825412 Z M190.38516,64.7841628 C190.509121,63.8656145 191.790254,64.1048585 191.791494,63.0648289 C191.611131,61.8667494 189.871344,62.6514202 189.291828,62.9086385 C188.889576,61.952902 189.429424,61.3721465 189.761019,60.721973 C189.868864,60.0928728 189.102788,60.3376951 189.135637,59.7842109 C189.707096,58.1690039 190.803528,57.0781503 192.103875,56.1912121 C193.904403,55.9656037 195.58159,56.0759287 197.415587,56.1912121 C198.218233,56.9510907 198.826879,57.9043479 199.133682,59.1594493 C199.332019,59.6385571 199.666093,59.9813083 199.914634,60.4089724 C199.884883,61.4198713 199.661134,62.2380115 199.290492,62.9086385 C196.437538,63.1801123 194.433095,64.3007163 192.573066,65.5644949 C191.592537,65.5551979 190.926249,65.2329002 190.38516,64.7841628 Z M208.663775,68.8451129 C208.439406,68.2841911 208.314206,67.6148037 208.039013,67.1270186 C207.937366,66.9466559 207.685106,66.8301329 207.570442,66.6584475 C207.444622,66.4700273 207.377064,66.1725218 207.258061,66.0336859 C206.353149,64.9738225 205.054041,64.4011244 203.977443,63.6895904 C203.355781,63.7391747 203.192153,63.3294848 202.57111,63.3778295 C202.219682,63.1044963 201.400922,63.2978748 201.165396,62.9086385 C201.474678,62.0210804 201.669916,61.0188587 201.633968,59.7842109 C201.521783,58.1256177 200.789796,57.0868276 200.227634,55.8782115 C198.606229,54.2202381 196.560259,52.9843506 193.041637,53.2229748 C190.647337,53.7981521 189.076756,55.1945686 187.573114,56.6597832 C187.160325,57.6527079 186.588866,58.4882025 186.323591,59.6286403 C185.943031,60.9482011 186.239297,62.0440131 186.01121,63.3778295 C186.732661,64.1135358 187.216727,65.0884861 187.886114,65.8774955 C188.316258,66.1762406 188.705494,66.5152729 189.135637,66.8140181 C189.416408,67.314819 190.243845,67.2689536 190.541971,67.7517802 C190.501064,68.2321276 190.202319,68.4540172 190.07278,68.8451129 C189.806884,69.1519155 189.893037,69.811386 189.604209,70.0952559 C189.425085,71.4922921 189.338933,72.2087846 189.448638,73.6882547 C189.772795,73.7285419 189.490785,74.3749965 189.761019,74.4698264 C189.720112,74.9266213 190.113067,74.9495541 190.07278,75.4069688 C190.716755,76.2734536 191.432628,77.0674214 192.260065,77.7504444 C193.831266,78.497927 195.89521,79.0055458 198.040349,79.0005874 C200.495389,78.9937695 202.846303,78.2407087 204.601585,77.5942541 C206.425046,76.1358573 208.187766,74.6185792 208.976775,72.125731 C209.116851,71.458203 209.05673,71.4916723 208.976775,70.8762078 C208.875748,70.1045529 208.818106,69.2293909 208.663775,68.8451129 Z M197.884159,31.6637424 C197.589132,31.6990712 197.539548,31.4877183 197.260017,31.507552 C196.436299,31.9469925 195.491099,33.5343083 196.322255,34.6319797 C197.160229,34.5328112 197.159609,33.5944292 197.728588,33.2262661 C197.686441,32.6634849 198.016797,32.4732053 198.040349,31.9761232 C197.918868,31.942034 197.858747,31.8453448 197.884159,31.6637424 Z M251.469859,62.4400673 C250.312067,62.8447988 249.144357,63.2396134 248.188621,63.8464006 C247.581214,64.0199455 247.05872,64.2784034 246.627337,64.6273526 C246.093686,64.8232104 245.504254,64.9632859 245.064193,65.2521141 L243.65848,65.2521141 C243.284739,65.1572843 242.52486,65.4485917 242.408337,65.0959238 C242.086039,64.556695 241.804649,64.270346 242.408337,63.8464006 C242.689728,63.398283 242.820506,62.7995531 243.189909,62.4400673 C243.326885,61.4830913 243.644844,60.7077175 243.65848,59.6286403 C243.168835,56.1750972 239.34341,54.872271 235.53472,55.7226409 C234.531259,52.9242297 232.169809,51.484427 228.816674,51.0356895 C227.668799,51.1974582 226.71926,51.3288564 225.692866,51.8172613 C225.629026,51.8470119 225.676131,51.9375031 225.536056,51.9728319 C225.112111,52.0788182 224.73713,52.4500803 224.286533,52.7537838 C223.830977,53.061826 223.302905,53.3202839 222.880199,53.691546 C222.684342,53.8638513 221.99822,54.4997693 221.787487,54.7848787 C221.74596,54.840661 221.83893,55.0551129 221.787487,55.0972595 C221.363541,55.4437295 221.047442,56.3052558 220.693534,56.9727838 C219.748334,56.8847718 218.726279,57.1134791 218.193868,56.9727838 C218.225478,56.056095 218.197587,55.1976676 217.568487,54.9416889 C216.600974,54.8580155 216.752826,55.895566 216.162773,56.1912121 C215.578299,56.0982416 215.35517,55.6451655 214.91263,55.4102601 C214.838874,54.2946145 215.310544,53.7243956 215.381821,52.7537838 C215.502063,51.9759309 216.181987,51.3251376 215.850392,50.5677382 C215.055805,50.1636265 214.514716,50.8739209 214.287869,51.5042607 C213.847189,52.000723 213.603606,52.6949025 213.506917,53.5353556 C212.893311,53.420692 212.762533,52.8213424 212.725965,52.1296421 C212.908807,51.635659 213.011074,51.0604817 213.350726,50.7233088 C213.46353,49.6820395 214.338073,48.2992587 213.194536,47.7550715 C212.258633,47.6001207 212.452012,48.5744513 211.788202,48.6922139 C211.612178,45.9130166 213.205072,44.9014979 214.91263,44.0058823 L216.318963,44.0058823 C217.776121,44.4236297 219.191131,44.8829038 220.537344,45.4115959 C221.454652,46.2123815 222.264735,47.1210129 223.504961,47.5988811 C223.586775,47.8368855 223.563223,47.9831591 223.661771,48.2236427 C223.693381,48.3017379 223.962376,48.6370514 223.973532,48.6922139 C224.1384,49.4936193 223.852051,50.5813738 223.973532,51.5042607 C225.131944,51.6207837 225.077402,50.5249718 225.536056,49.941737 C225.653819,48.2633101 225.211899,46.9555255 224.442723,45.7239766 C223.91651,44.8829038 223.027713,43.9835694 222.099248,43.380501 C221.542664,43.0191557 220.945794,42.7346661 220.224963,42.4433586 C220.070632,42.3813783 219.816513,42.3819981 219.599581,42.2871682 C219.525205,42.2543187 219.341124,41.9902825 219.287201,41.9741677 C219.049816,41.9066091 218.665538,41.8811972 218.350058,41.8185971 C217.535017,41.6555888 216.337558,41.6345155 215.06944,41.6617869 C214.393235,41.6630265 214.078375,42.0249915 213.350726,41.9741677 C213.672404,41.3525051 213.399071,40.6397315 213.350726,39.9436926 C212.153886,36.545312 208.828023,34.4850863 204.445395,34.7887899 C204.525349,33.8789189 204.677201,33.0403252 204.601585,31.9761232 C204.605924,31.6079602 204.33321,31.5156095 204.445395,31.0389809 C203.365078,28.4742355 201.473439,26.7201926 197.728588,26.8206007 C196.728846,26.9668742 196.005535,27.38958 195.228302,27.7577431 C193.872173,29.1609774 193.359596,31.4090033 193.509588,34.3195989 C194.191991,37.1787508 195.977644,38.9340333 199.602873,38.8503598 C199.165292,40.7556347 198.847953,42.8933357 199.133682,45.0992151 C198.528754,44.7670006 198.387439,43.9705536 197.884159,43.5366914 C197.582934,42.9007733 196.806941,42.7390047 196.634016,41.9741677 C195.569194,41.1659444 194.811175,40.0478195 193.978159,39.0059304 C193.357736,36.6587359 192.361713,34.6871421 191.791494,32.2891238 C191.743769,28.9607809 191.7103,25.6460738 192.416255,23.0714115 L192.416255,22.6022205 C194.093443,23.0608749 195.166322,24.1232174 197.415587,24.0085539 C198.153153,24.0166113 198.213894,23.3484635 198.665111,23.0714115 C199.657415,23.4333766 200.211519,24.2329226 201.009206,24.7895058 C201.803794,25.2965048 202.334345,26.0681597 203.195872,26.5082199 C204.445395,27.86187 206.022174,28.8901234 207.414252,30.1018385 C210.31679,32.4583301 213.249078,34.7856908 216.318963,36.9748355 C219.307654,39.246414 222.503359,41.3097387 226.004627,43.0681202 C229.469946,44.8110066 231.999983,47.4879364 235.222339,49.4731658 C236.274145,50.603067 237.312935,51.7651978 238.502957,52.7537838 C239.701037,53.7498075 241.070182,54.5567912 242.095956,55.7226409 C243.255608,56.7508943 244.348941,57.8448468 245.377194,59.0026391 C246.057738,59.4160478 246.469287,60.0978312 247.251479,60.4089724 C247.605386,61.1490174 248.711115,61.1360015 249.283193,61.6591153 C250.14472,61.5773013 250.755226,61.748367 251.469859,61.8153057 C251.803313,62.2628036 253.248694,61.5983746 253.187953,62.4400673 C252.446049,62.500808 252.061151,62.1097122 251.469859,62.4400673 Z M238.034386,64.4711622 C236.408643,64.2213815 235.501251,63.2544886 234.753768,62.1276865 C234.829384,61.3702871 235.25209,60.9593576 235.37853,60.252782 C235.521704,59.9794488 235.431833,59.4736895 235.690911,59.3156397 C235.781402,59.0410669 235.501871,58.3977112 235.847101,58.3784973 C235.895446,57.8541439 236.369595,57.7549754 236.784863,57.5969256 C237.024107,57.2640913 237.479043,57.1457089 237.878196,56.9727838 L239.752481,56.9727838 C240.229109,57.2771072 240.82598,57.4624283 241.315004,57.753116 C241.972615,58.5539016 242.215578,59.768096 242.095956,61.3467346 C241.238768,62.885086 240.123743,64.1649794 238.034386,64.4711622 Z M230.223007,61.9714961 C229.319954,62.110332 229.477384,63.3090313 229.129055,64.002591 C228.550159,64.1135358 228.459048,63.7354559 227.879532,63.8464006 C227.956387,62.4648594 228.718125,61.7682007 228.660484,60.252782 C228.622056,60.0835758 228.349962,60.1474155 228.348723,59.9404012 C227.293818,59.7191315 227.306214,60.5639232 226.786199,60.8781634 C226.638066,61.8233632 226.284158,62.5634081 226.004627,63.3778295 C225.425731,63.1230904 224.891461,62.8237254 224.599533,62.2844967 C224.48487,61.1415797 225.576963,60.6823056 225.067485,59.6286403 C224.303267,59.3410516 224.320002,60.6395392 223.973532,60.252782 C223.860728,58.8898349 224.17063,57.9502134 224.286533,56.8165934 C224.769359,56.465165 224.73589,55.5993001 225.067485,55.0972595 C225.11397,54.5710467 225.760425,54.6448032 225.849056,54.1601172 C226.409359,54.1997846 226.421135,53.691546 226.942389,53.691546 C227.541119,53.1975629 228.622676,53.1851668 229.754436,53.2229748 C230.596129,53.370488 231.176264,53.7801778 231.941102,54.0039268 C233.054268,54.9739187 233.760844,56.3511213 233.816006,58.3784973 C233.816006,59.0026391 233.504245,59.3156397 233.504245,59.9404012 C233.004064,60.3259188 232.831139,61.0386924 232.410293,61.5023052 C232.07064,62.0483517 231.551865,62.4152752 231.31696,63.0648289 C230.905411,63.1119339 230.803143,62.8485176 230.848389,62.4400673 C230.639515,62.2838769 230.376099,62.182849 230.223007,61.9714961 Z M234.283957,67.4400192 C229.936038,67.4146073 226.218459,66.757616 221.943057,66.6584475 C221.33627,66.5357264 220.977404,66.1663238 220.537344,65.8774955 C218.963663,65.5756514 217.748229,64.9161808 216.475154,64.3149718 C215.849772,64.0032108 215.22625,63.6889706 214.600869,63.3778295 C214.0009,63.0400367 213.601127,62.5014278 212.882155,62.2844967 C212.809638,61.7316323 212.48796,61.4285486 212.256774,61.033734 C210.402323,58.9834252 208.219376,57.2597527 206.164109,55.4102601 C204.651789,53.3302008 202.79052,51.597851 201.477157,49.3169754 C201.449266,49.1843376 201.538518,49.1700821 201.633968,49.1614049 C202.070309,49.4006489 202.514708,49.6343146 202.883491,49.941737 C204.498698,50.1493711 205.551123,50.9197864 207.101251,51.1912601 C207.98695,51.2960069 208.52184,51.0493252 209.132346,50.8794992 C209.118091,54.3311828 210.340962,56.5451196 211.945013,58.3784973 C212.527628,58.5241511 212.660885,59.1197819 213.350726,59.1594493 C213.607945,59.6317393 214.5048,59.4637726 214.91263,59.7842109 C216.381564,59.900114 217.232553,60.0618827 218.662439,59.9404012 C219.375213,59.8716031 219.816513,59.5325708 220.380533,59.3156397 C220.479702,62.3935821 221.766413,64.282742 223.661771,65.5644949 C224.677629,65.9029074 225.637084,66.2971022 226.629389,66.6584475 C227.014906,66.6373742 227.382449,66.6348949 227.567151,66.8140181 C228.888571,66.6776614 230.239122,66.5698156 231.16015,66.0336859 C231.641117,65.6283347 232.251003,65.3531421 232.566483,64.7841628 C233.150337,64.5331425 233.261282,63.8116917 233.972816,63.6895904 C234.139543,64.2517519 234.461221,64.6589625 234.753768,65.0959238 C235.131848,65.3426054 235.444849,65.6543664 235.690911,66.0336859 C235.990895,66.3070191 236.652845,66.2171476 236.628673,66.8140181 C235.781402,66.9565728 235.09528,67.2602763 234.283957,67.4400192 Z M203.195872,37.2878361 C203.715267,36.9587207 205.305062,36.8874433 206.164109,36.9748355 C209.193707,37.2853569 211.830969,39.7918408 212.101203,42.599549 C211.914642,43.4034337 211.052496,43.5298735 210.85044,44.3182631 C210.28394,44.7409689 210.210184,45.6551785 209.757108,46.1925478 C209.71806,47.1947695 209.30837,47.8269687 209.288536,48.8484043 C208.894961,49.1645039 208.471016,48.5106116 207.726013,48.6922139 C207.752044,48.0408008 207.780555,47.3881481 207.414252,47.13031 C206.418228,47.0187454 206.692801,48.1790169 205.851728,48.2236427 C205.548024,47.9032045 205.114782,47.7104457 204.758395,47.4426907 C204.809839,46.3072114 206.116384,44.6015132 204.601585,44.1614529 C203.696673,44.1930629 204.143551,45.5783229 203.352062,45.7239766 C202.91882,45.0105832 203.576431,44.2302511 203.508252,43.380501 C203.669401,42.8096623 204.172062,41.7374029 203.352062,41.5055965 C202.468842,41.3512655 202.797338,42.4092695 202.102539,42.4433586 L202.102539,40.2560734 C202.198608,39.6753178 202.475041,39.2743052 202.57111,38.6941694 C202.82213,38.2677449 203.255373,38.0241622 203.195872,37.2878361 Z M199.133682,36.9748355 C199.027076,35.9794317 199.850794,34.9753506 199.133682,34.3195989 C197.989525,34.4249654 197.917628,35.6025914 197.415587,36.3506938 C196.427621,35.9329465 196.060698,34.892297 195.697493,33.8510277 C195.617539,32.0009153 195.911945,30.5245443 196.634016,29.4764572 C199.110129,28.4017185 201.97424,29.7566082 202.415539,32.1323136 C202.560573,33.4227437 202.119274,34.1274599 202.102539,35.2567412 C201.360015,36.076121 200.761285,37.0399149 199.133682,36.9748355 Z M190.698161,22.2898398 C189.06498,23.2610713 188.37018,25.1706847 185.698829,25.1018866 C185.599041,24.2732098 186.519448,24.464729 186.636591,23.8517437 C187.097105,23.636672 187.26879,23.1309126 187.729304,22.9152211 C188.018132,22.1621603 188.642274,21.7450328 188.822637,20.8841262 C189.291828,20.3634916 189.612266,19.694724 190.07278,19.1654121 C191.050209,18.1638103 191.767321,16.9025109 192.728636,15.8847941 C192.783799,15.6802591 193.003829,15.6393521 193.041637,15.4168428 C193.970722,15.7366612 194.263269,16.694257 194.915921,17.2905076 C195.859882,17.6493737 196.649511,18.1607112 197.728588,18.3844602 C197.653592,18.8759641 197.950478,18.9955861 198.040349,19.3222223 C197.856268,20.2829172 197.515996,21.0886613 196.947016,21.665698 C196.469148,21.552274 196.487742,21.9346926 196.009254,21.8218884 C195.560517,21.8534983 195.215906,21.7816012 195.072112,21.5088878 C194.88741,21.2777012 194.482059,21.265925 194.29116,21.0403166 C193.679414,21.1946476 193.383768,20.6950863 193.041637,21.0403166 C192.451584,21.1735743 192.30779,20.5209216 191.947684,20.8841262 C191.256604,21.0781246 190.944843,21.6520623 190.698161,22.2898398 Z M253.500334,61.1905442 C252.667319,60.5137191 251.659519,60.0110588 250.375906,59.7842109 C249.687925,58.8061615 248.592113,58.2359426 247.72005,57.4407352 C246.792824,56.6498664 245.969106,55.7554904 245.064193,54.9416889 C243.253129,53.3667692 241.508383,51.7273898 239.44072,50.410928 C238.646752,49.3808152 237.578211,48.6277544 236.784863,47.5988811 C233.503005,45.5169624 230.727527,42.9274249 227.25477,41.0376451 C223.574999,39.3009567 220.361939,37.0987962 217.256106,34.7887899 C215.715895,33.6731442 214.223409,32.5091539 212.725965,31.3513617 C212.04852,30.6751564 211.155383,30.2140229 210.538679,29.4764572 C209.65546,29.0060266 209.079043,28.2281736 208.195204,27.7577431 C206.829777,26.4152495 205.178622,25.3584851 203.820633,24.0085539 C203.089885,23.3862715 202.271745,22.8501418 201.633968,22.1342692 C201.019743,22.0710493 200.96644,21.4475273 200.384445,21.3526974 C200.184868,20.8748292 199.488829,20.8940431 199.290492,20.4155551 C200.661497,19.8602115 202.049856,19.3209827 202.102539,17.4473178 C201.716401,16.8436296 201.255888,16.3149375 200.227634,16.3533653 C199.157234,16.3818762 198.453138,16.0453231 197.415587,16.0409845 C196.718309,15.5408034 195.838808,15.2222246 195.228302,14.6346512 C194.783903,13.5171461 194.285582,12.4535639 193.978159,11.1978428 C194.373594,9.03782884 194.033942,6.52700633 192.884827,5.41817851 C192.08652,5.01840549 191.368168,4.53929766 190.07278,4.63660675 C189.888698,4.71222274 189.718872,4.8033338 189.604209,4.94960734 C188.746401,5.39400619 187.99272,5.94129236 187.573114,6.82327223 C187.496258,7.22428486 187.053099,8.0622587 187.416923,8.38579594 C187.430559,9.0496051 187.786326,9.37128293 188.510876,9.32355809 C188.915607,9.19154002 188.210271,8.63805582 188.667066,8.38579594 C188.659629,7.90978713 188.809001,7.59058851 189.135637,7.44865359 C189.565781,6.94103482 190.01018,6.44829133 191.010542,6.51089145 C191.036574,6.69373337 191.257843,6.68071751 191.479113,6.66770164 C192.507986,7.30547907 191.973096,9.50640002 192.103875,11.0416524 C190.964057,13.1830722 190.239507,15.7385206 188.510876,17.2905076 C188.166265,18.4042939 187.529108,19.225533 187.104542,20.2593647 C186.334747,21.0514731 185.447189,21.7264387 184.761687,22.6022205 C184.397242,23.0156292 183.973917,23.3881309 183.667734,23.8517437 C183.388203,24.2763088 182.843396,24.6890977 183.042973,25.5710776 C183.637364,26.6594519 185.183153,27.2216133 186.792781,27.1336013 C187.447294,27.2154153 187.664845,26.8602681 188.197875,26.8206007 C188.540007,26.7858917 189.039568,26.1165043 189.291828,26.5082199 C188.954035,28.0447119 189.22117,30.1867516 189.135637,31.9761232 C189.616605,34.8284573 190.266778,37.5103454 191.322303,39.7875022 C192.633186,41.8099198 194.2893,43.4864873 195.853684,45.2554055 C196.775951,46.6766141 197.632519,48.1635218 198.50954,49.629976 C199.153515,51.3288564 200.097476,52.7277521 201.165396,54.0039268 C201.682932,54.6317874 202.093862,55.3668739 202.7273,55.8782115 C203.127693,56.6758981 203.945833,57.0558374 204.289824,57.9093064 C205.497201,59.0460253 206.721312,60.16477 207.882823,61.3467346 C208.400978,61.4012772 208.560268,61.8146859 208.820585,62.1276865 C209.126768,62.3935821 209.600917,62.4927506 209.757108,62.9086385 C210.448808,63.4150176 210.986797,64.0744882 211.788202,64.4711622 C213.032767,65.570693 214.65975,66.2865656 216.162773,67.1270186 C216.934428,67.5013797 217.790996,67.7895882 218.506249,68.2203514 C218.997133,68.3021654 219.377692,68.4949242 219.756392,68.6895424 C220.215666,68.85441 220.790843,68.9039942 221.162105,69.1581135 C223.216133,69.4996251 225.037734,70.0735628 226.942389,70.563827 L232.097912,70.563827 C235.066769,70.0958757 238.612043,70.204961 241.158814,69.3136841 C243.946688,68.6133066 246.515153,67.6928989 248.814002,66.5022571 C249.328439,66.3919321 249.813125,66.2512368 250.375906,66.1898763 C251.164296,65.5198691 252.404522,65.3016984 253.344763,64.7841628 C254.61412,64.5951228 255.755798,64.2790232 256,63.0648289 C255.563659,62.0440131 254.790764,61.3591306 253.500334,61.1905442 L253.500334,61.1905442 Z" id="Fill-20"></path>
                        </g>
                    </g>
                </g>
            </g>
        </g>
    </g>
</svg>