<?xml version="1.0" encoding="UTF-8"?>
<svg width="67px" height="59px" viewBox="0 0 67 59" version="1.1" xmlns="http://www.w3.org/2000/svg" xmlns:xlink="http://www.w3.org/1999/xlink">
    <!-- Generator: Sketch 43.1 (39012) - http://www.bohemiancoding.com/sketch -->
    <title>Fill 32</title>
    <desc>Created with Sketch.</desc>
    <defs></defs>
    <g id="User-Panel" stroke="none" stroke-width="1" fill="none" fill-rule="evenodd">
        <g id="User-panel-[screen_size-large]" transform="translate(-1190.000000, -500.000000)" fill="#FFFFFF">
            <g id="Content" transform="translate(101.000000, 140.000000)">
                <g id="Stats" transform="translate(901.000000, 10.000000)">
                    <g id="box" transform="translate(0.000000, 339.000000)">
                        <g id="top" transform="translate(1.000000, 0.000000)">
                            <path d="M223.603961,47.889632 C222.670884,47.6213277 221.54736,47.5428726 220.288485,47.6015642 C220.104026,47.6093498 220.089054,47.7866223 219.856084,47.7458975 C217.791099,48.1782988 216.386693,49.2718786 214.667868,50.0510392 C213.678496,49.7438068 213.213156,48.9113446 212.362128,48.4663666 C210.972694,48.0770857 209.716216,47.5560483 207.749449,47.7458975 C207.473359,47.9980318 206.998436,48.0513333 206.596579,48.1782988 C206.031822,48.6214801 205.603014,49.2030058 205.15564,49.7629714 C205.059817,50.14806 205.094553,50.6631086 204.867573,50.9164406 C204.761568,52.4148725 205.068202,53.5018645 205.299375,54.6631193 C205.889285,55.706392 206.506744,56.7233135 207.173313,57.6905267 C208.330975,58.7906944 209.617398,59.7620999 210.920591,60.7173353 C211.515891,61.2263949 212.006385,61.8408598 212.79393,62.1576745 C213.015521,62.5128185 213.473075,62.6960799 213.802467,62.8787425 C213.857565,62.9092861 213.888708,63.12369 213.947399,63.1674092 C214.286373,63.421939 214.616962,63.2536499 215.099671,63.3111437 C216.493296,63.1188988 216.668173,61.7085043 217.838411,61.293471 C218.101326,60.7880047 218.772685,60.6897862 218.991282,60.1406007 C219.528489,59.8609173 219.808772,59.3243086 220.432819,59.1314649 C221.820455,57.3479596 223.913589,56.2711488 225.188633,54.3756503 C225.51503,53.1640885 226.101347,52.2124464 225.909701,50.4840393 C225.386867,49.3730916 224.607107,48.5190693 223.603961,47.889632 Z M247.384231,53.0784467 C247.066219,55.0667736 245.90676,56.2124572 244.790423,57.4012611 C244.02863,57.6492031 243.624976,58.2540857 242.772151,58.4109958 C242.231949,58.7787165 240.889229,58.8008756 240.177744,58.5547303 C240.907795,55.7770615 241.79835,53.1616929 242.051682,49.9073048 C243.900467,49.9318594 245.981023,49.72584 246.95183,50.6283727 C247.354286,51.1871405 247.447115,52.0549374 247.384231,53.0784467 Z M235.998065,58.9877304 C234.946408,61.2976632 233.57554,63.2907813 231.962719,65.0407486 C231.223086,65.9828083 230.292405,66.7332221 229.368312,67.4914214 C228.512493,68.3166969 227.354832,68.8413277 226.485837,69.6528287 C224.735271,70.0163571 223.490171,70.884154 221.874356,71.3818346 C220.304655,71.807648 218.653506,71.3644667 217.261677,71.8148348 L211.929128,71.8148348 C211.081094,71.6531335 210.131848,71.593843 209.33472,71.3818346 C208.849018,71.3393132 208.350738,71.3099674 208.037517,71.0943657 C207.569182,71.0817889 207.151154,71.019504 206.884646,70.8051001 C205.143663,70.5769216 203.84586,69.9055618 202.272566,69.5078964 C202.047382,69.0132102 201.155031,69.1844938 200.975363,68.6436928 C200.308794,68.5897924 200.158472,68.0196456 199.534425,67.9232238 C198.591766,67.0877671 197.754513,66.1475041 196.795684,65.3288164 C196.501028,64.6628467 196.047067,64.1567816 195.642814,63.5998105 C195.300845,63.0290648 195.001997,62.4145999 194.634277,61.8696067 C194.082696,60.5957599 193.219091,59.6339367 192.616604,58.4109958 C192.639961,58.2439045 192.584264,58.1546693 192.471672,58.122928 C191.662566,55.5219328 191.084634,52.6885669 191.030733,49.3311691 C191.017558,45.9060962 191.00019,42.4786278 191.896135,39.9632745 C191.889547,39.7165303 192.002738,39.5889659 192.184203,39.5308732 C200.069237,39.8123533 208.206405,39.8422979 216.397473,39.8183422 C217.623409,40.0513118 220.311842,39.8920061 222.018689,40.10641 C224.011208,40.1315636 225.939047,40.2207987 227.783041,40.3950768 C231.652492,40.5603714 235.395578,40.8538293 238.736806,41.548546 C238.985945,48.5238604 238.323569,54.5870598 235.998065,58.9877304 Z M250.122373,46.1600271 C249.616907,45.5617324 249.024002,45.0484805 248.537101,44.4304223 C248.055591,44.3357971 247.832204,43.9824498 247.384231,43.8536877 C247.041664,43.5722076 246.414622,43.5752021 246.087027,43.277552 C245.332421,43.2643763 244.789824,43.0373956 243.925021,43.1332186 C243.453692,42.7080041 242.375085,43.2673708 242.051682,42.9894841 C241.967837,41.0556565 241.747444,39.2577777 241.043145,37.9450028 C236.670024,36.9855752 231.405149,36.9173013 226.485837,36.5034658 C221.33056,36.2788807 216.082455,36.1453274 210.776257,36.0716635 C210.592397,36.080048 210.576826,36.2561227 210.343856,36.2153979 C206.524711,36.2399526 202.56842,36.1267617 198.95769,36.3597313 C195.274494,36.5196359 191.663764,36.7526056 188.724993,37.656935 C187.982964,38.3564428 187.805691,39.6195095 187.427789,40.6831446 C187.170864,41.9156678 187.013355,43.2482062 186.851055,44.5747556 C186.556998,47.2062944 186.451593,50.3163491 186.70732,53.0784467 C187.387064,58.3067883 188.913045,62.6906899 191.463135,66.0492855 C192.668708,67.7746981 194.254578,69.1198133 195.93148,70.3738966 C196.881924,70.9111042 197.667074,71.6160021 198.813955,71.9585692 C199.642225,72.6191489 200.856782,72.89464 201.840165,73.4001063 C206.263594,74.8853625 211.063127,75.9957114 217.117942,75.8501802 C219.356008,75.5896615 221.522206,75.2584733 223.747096,74.9853778 C223.763266,74.8182865 223.888435,74.8853625 224.035763,74.8416433 C225.588694,74.3751051 226.929617,73.4833525 228.359775,72.8233717 C229.821675,71.5471293 231.392573,70.3798856 232.827522,69.076693 C234.289421,67.7998517 235.474033,66.2457226 236.862867,64.8970141 C237.156325,64.4688052 237.309043,63.9004551 237.72767,63.5998105 C237.980403,63.0835641 238.161868,62.4954505 238.592472,62.1576745 C239.636943,62.5062306 240.855092,62.6823054 242.340349,62.5900757 C243.147058,62.436759 243.820215,62.14929 244.646089,62.0145389 C246.104994,61.1671044 247.587855,60.3442245 248.537101,58.9877304 C249.752257,57.897145 250.493088,56.3310381 251.275243,54.8080516 C251.877131,51.7740563 251.192596,48.3843182 250.122373,46.1600271 Z M225.909701,27.5679724 C226.063018,28.566927 226.272032,29.5113823 226.197769,30.7391143 C226.04026,31.0613191 225.959409,31.4607812 225.765368,31.7470524 C225.681523,32.1141742 225.188034,32.4501535 225.4773,32.7567871 C226.21873,33.1370845 226.866134,32.6316183 227.494973,32.4681203 C228.410082,31.557802 229.052096,30.3743881 229.224578,28.7208427 C229.153309,28.2153765 229.009575,27.7823764 229.080244,27.1355712 C228.857456,26.9265573 228.777803,26.5732101 228.792176,26.1264354 C228.130399,24.866962 227.268591,23.8063214 226.485837,22.6672256 C226.172017,22.2611757 226.086974,21.6257495 225.909701,21.0819541 L225.621633,21.0819541 C224.480142,21.4305102 224.065109,22.5043265 224.180096,24.1093615 C224.623278,25.3945873 225.386268,26.3612017 225.909701,27.5679724 Z M204.578906,26.2707688 C204.850205,26.624116 205.174805,26.9235628 205.299375,27.4236391 C206.508541,28.6172341 207.890788,29.6359522 208.759184,31.1709167 L208.759184,33.1891883 C209.504806,33.1670292 209.912054,32.8052975 210.343856,32.4681203 C210.572634,31.6883608 210.693011,30.7996026 210.631924,29.7293796 C210.258813,27.4122601 208.44716,26.5336831 207.461381,24.8292317 C207.300877,23.4978911 207.300877,22.2695602 207.461381,20.9382196 C207.713515,20.6142182 207.803948,20.1273176 208.037517,19.7847504 C208.112977,19.5715443 208.250723,19.4218209 208.326183,19.2086147 C208.475907,19.1493243 208.832249,18.649847 208.326183,18.7762135 C208.302228,18.6079244 208.098604,18.6199023 207.893782,18.632479 C207.699142,18.6767972 207.61889,18.8373007 207.317048,18.7762135 C205.554504,20.3069857 204.097395,22.6582422 204.434572,25.8383675 C204.602862,25.8623233 204.591483,26.066546 204.578906,26.2707688 Z M213.514998,23.9644293 C213.761742,24.534576 214.040827,25.0717837 214.234868,25.6940342 C214.703203,26.0425903 214.779861,26.7828228 215.099671,27.2793057 C215.27335,27.9237153 215.469787,28.5435702 215.387739,29.4419107 C215.172137,31.0187977 213.5683,32.5447787 214.811603,33.9102563 C215.233823,33.8719271 215.254185,34.2354555 215.676405,34.1977252 C217.055657,34.0869299 217.383851,32.926274 218.127078,32.1800525 C218.257038,31.6374548 218.436706,31.1451642 218.703214,30.7391143 C218.849943,29.7323741 218.876893,28.6052562 218.846948,27.4236391 C218.186967,24.8645665 216.632838,23.200241 216.108806,20.5058184 L216.108806,16.7585408 C216.36693,15.0948142 217.065839,13.8718734 217.261677,12.1464607 C217.667727,11.4948644 218.104919,10.8762073 218.270813,9.98505352 L216.973609,9.98505352 C216.778968,10.0293717 216.698118,10.1892763 216.397473,10.128788 C215.998011,10.5935295 215.409299,10.8702183 215.099671,11.4259917 C214.567254,11.7571799 214.440289,12.4962146 213.947399,12.8669298 C213.659331,13.924576 213.120327,14.7306869 212.937665,15.8943372 C212.587911,16.8885007 212.683734,18.3300378 212.505263,19.4966826 C212.619053,20.3926275 212.705294,21.3149237 212.79393,22.2354233 C213.14608,22.6995659 213.171832,23.4907044 213.514998,23.9644293 L213.514998,23.9644293 Z" id="Fill-32" transform="translate(219.031180, 42.924029) rotate(-15.000000) translate(-219.031180, -42.924029) "></path>
                        </g>
                    </g>
                </g>
            </g>
        </g>
    </g>
</svg>