<?xml version="1.0" encoding="UTF-8"?>
<svg width="60px" height="60px" viewBox="0 0 60 60" version="1.1" xmlns="http://www.w3.org/2000/svg" xmlns:xlink="http://www.w3.org/1999/xlink">
    <!-- Generator: Sketch 43.1 (39012) - http://www.bohemiancoding.com/sketch -->
    <title>Fill 8</title>
    <desc>Created with Sketch.</desc>
    <defs></defs>
    <g id="User-Panel" stroke="none" stroke-width="1" fill="none" fill-rule="evenodd">
        <g id="User-panel-[screen_size-large]" transform="translate(-1197.000000, -160.000000)" fill="#FFFFFF">
            <g id="Content" transform="translate(101.000000, 140.000000)">
                <g id="Stats" transform="translate(901.000000, 10.000000)">
                    <g id="box" transform="translate(1.000000, 0.000000)">
                        <g id="top">
                            <path d="M225.313726,46.9461462 C224.50297,47.3010203 223.671338,47.638723 223.082312,48.2168244 C222.287354,48.5888698 221.521169,48.9952578 221.269535,49.9167857 C221.462492,50.1457367 221.663912,50.3632402 221.826966,50.6265339 C222.510777,50.775352 222.931671,50.4033066 223.361028,50.2029745 C223.809003,49.9911948 224.302679,49.7679675 224.616374,49.3501319 C225.568745,48.9036774 226.548198,48.480118 226.569073,47.0892406 C226.337186,46.848842 225.749853,46.9747651 225.313726,46.9461462 Z M230.055269,46.6656812 C230.032137,46.8259469 229.834667,46.8144994 229.637197,46.8030518 C229.071867,47.2666776 228.40329,47.6272755 227.823855,48.0794538 C227.419888,48.7033453 226.548198,48.8578872 226.429151,49.7736913 C226.682477,50.1342892 227.025511,50.3975828 227.54514,50.4834395 C228.599631,50.3288975 229.166089,49.6763871 229.915912,49.2070375 C230.507758,48.7033453 231.651957,48.0794538 231.170694,46.9461462 C231.028516,46.619891 230.529762,46.6542336 230.055269,46.6656812 Z M255.298174,30.1125223 C255.161638,30.1125223 255.189283,30.2842356 255.158252,30.3929873 C254.495881,32.2703857 253.496117,33.7986338 252.090129,34.9204938 C250.869763,36.1797244 249.243172,37.032567 247.348022,37.6106683 C246.760689,37.6163921 247.658332,37.0840809 247.348022,36.4773607 C246.966058,36.1568293 246.569989,35.8534692 245.953882,35.7676126 C245.381218,35.7733363 244.669197,36.1682769 244.279898,35.910707 C244.279898,35.3440532 245.212522,35.7218224 245.395887,35.3440532 C245.942598,35.3326056 246.265885,35.0922071 246.65067,34.9204938 C247.338994,34.5312771 248.206171,34.3252211 248.045938,33.0831618 C247.873857,32.3562424 247.041096,32.3104521 246.093803,32.3734137 C245.514369,32.4478228 244.831686,33.1632947 244.279898,32.7969731 C244.259587,31.9727494 245.342852,32.2703857 245.674602,31.8067599 C246.283375,31.6693893 246.67888,31.3145152 247.209228,31.1027355 C248.104615,30.4502251 249.013542,29.8206098 249.30072,28.5556554 C249.182238,28.2465715 248.787298,28.2236764 248.324653,28.2694666 L247.069871,28.2694666 C245.671781,28.4240086 244.617854,29.4657357 243.164473,29.1223092 C242.650486,29.2596798 242.473892,29.7404769 242.048484,29.969428 C241.851578,29.9579804 241.653544,29.9465329 241.630411,30.1125223 C240.838274,30.249893 240.095785,30.4387775 239.398998,30.6734523 C238.539156,30.7020712 237.944488,30.9939838 237.725578,31.6636655 C237.783691,32.5966409 238.470323,32.8885535 239.25964,33.0831618 C240.07491,33.2777702 241.20444,33.128952 241.770333,33.2205325 C241.693038,35.4528049 241.409809,37.4790215 241.491054,39.8715596 C241.297533,41.2051993 241.253525,43.2142445 241.491054,44.5421605 L241.491054,46.8030518 C241.835216,49.424541 241.584711,52.6527504 242.188406,55.0109459 C238.975283,55.8523409 235.005566,55.92675 231.310616,56.2816241 C229.117568,56.3216905 226.697147,56.1328059 224.895089,56.5678129 C224.571238,56.6651171 224.522153,57.0371625 224.197737,57.1344667 C224.070228,57.380589 224.150344,57.838491 223.919022,57.9815854 C223.625074,58.4394875 223.300094,58.8630469 223.082312,59.395358 C222.685679,59.7960223 222.604434,60.517218 222.106245,60.8091306 C222.090448,61.1754522 221.850098,61.307099 221.688172,61.5188787 C221.562356,61.7650011 221.376169,62.0626374 221.129614,61.7993437 C220.911832,60.7003788 220.631424,59.6643754 220.293468,58.6913336 C220.071737,57.9186239 220.777552,57.5866449 220.432826,57.1344667 C220.210531,56.3674807 219.183121,56.4189947 218.480127,56.1442535 C216.026418,56.1785961 213.813623,55.9725402 211.925807,55.4345053 C211.691664,54.7190334 212.222013,54.3298166 212.065165,53.3109846 C212.020593,52.2749812 211.854154,51.3591771 211.785885,50.3403451 C212.860688,49.7336249 213.774693,48.966639 214.993931,48.5030131 C215.810893,47.6329993 217.440305,47.5872091 217.642853,46.0990274 C217.569507,45.4178981 216.895851,45.343489 216.109356,45.3892793 C215.406926,45.4350695 214.808873,45.5781638 214.435936,45.955933 C213.163099,46.1276463 212.683529,47.1006881 211.50717,47.3697056 C211.61324,46.3680449 211.333961,45.7556009 211.367248,44.8226255 C212.046546,44.4734752 212.613568,44.0098493 213.319947,43.6893179 C213.857066,43.1970732 214.741733,43.0597026 214.854009,42.1381747 C214.646383,40.3294617 212.401428,41.2624371 211.367248,41.7088916 C211.130848,40.4782798 211.824251,40.1920911 212.483237,39.8715596 C212.979734,39.3850387 213.779771,39.2076017 213.73802,38.1715983 C213.584557,37.71942 213.294558,37.3988886 212.622595,37.4675739 C212.090554,37.3588222 211.577695,37.999885 211.367248,37.7480389 C211.141568,37.1413187 211.141568,35.6703084 211.367248,35.0635882 C213.237574,35.4757 215.430058,35.5615567 217.50406,35.7676126 L224.197737,35.7676126 C225.973841,35.5901755 227.823855,35.4871476 229.357917,35.0635882 C230.846843,34.5885148 232.37357,34.1592316 232.704756,32.5165081 C232.296275,31.4919522 230.454723,31.5720851 229.21856,31.8067599 C227.903972,31.9841969 226.478237,32.0471585 225.174369,32.2303193 L217.642853,32.2303193 C216.474393,32.0528822 215.094923,32.0815011 213.877942,31.9498543 C213.418682,31.7552459 212.763081,31.7609697 212.204522,31.6636655 C211.738493,31.4805047 211.025343,31.5434662 210.669896,31.2401061 C208.373599,30.885232 206.737417,29.8549524 205.231565,28.693026 C203.769721,27.0674738 202.626087,25.1156663 202.441593,22.1850932 L202.441593,19.5006425 C202.572487,18.4039671 202.747954,17.3565162 202.860794,16.2443866 C202.996202,16.2398076 202.968556,16.0709562 203.000152,15.9616321 C204.584427,13.4197034 207.277922,12.0007794 209.415114,10.0192083 C211.853589,9.19155037 214.641305,8.71991127 218.062054,8.88704551 C220.108975,9.12229269 221.837686,9.67864367 223.500385,10.3025352 C224.242309,10.7289565 225.250536,10.8852156 225.871157,11.4341256 C226.74736,11.6773861 227.339207,12.2091248 228.242492,12.4243388 C228.857471,12.979545 229.831282,13.1707191 230.473906,13.6978789 C231.387347,13.90279 231.854505,14.5610242 232.844678,14.688092 C233.470941,15.1843434 234.317806,15.4573675 235.215449,15.6788776 C235.946653,16.0686667 236.878713,16.2558341 238.004293,16.2443866 C238.621529,16.2575513 239.010827,16.0400478 239.25964,15.6788776 C239.533277,15.8734859 239.335243,16.5448848 239.538919,16.8098956 C240.775083,17.6781924 242.07613,18.4806657 243.303831,19.3575481 C244.048576,19.6838033 244.721103,20.0901914 245.395887,20.4908557 C246.141196,20.7713207 246.844755,21.0918521 247.487943,21.4810688 C250.445484,22.6773379 253.185807,24.0911105 254.878973,26.5752291 C254.763876,26.9701696 255.075879,26.9358269 255.018331,27.2792534 C255.397474,27.1762255 254.919031,27.9489352 255.298174,27.8459072 L255.298174,30.1125223 Z M241.630411,62.7895569 C241.584711,63.8942456 241.017689,64.8443923 241.212339,65.7601964 C237.268576,66.4298781 233.135805,66.9049515 228.38185,66.7561333 C228.306247,65.8861195 228.175352,65.0790671 227.405783,64.9130776 C226.787983,64.8558399 226.522244,65.1477524 226.429151,65.6228258 C225.985689,65.6915111 226.663859,66.8992277 226.011078,66.7561333 C226.224911,65.7315775 226.310669,64.2548434 225.174369,64.2090532 C223.965851,64.2548434 223.845112,65.4053223 223.919022,66.7561333 C221.722024,66.7675809 219.510358,66.790476 217.642853,66.4699446 C217.848786,65.7373013 217.772619,64.7127455 217.782775,63.7797701 C217.847658,62.8181758 217.797444,61.9767808 217.085423,61.7993437 C215.382665,62.0569136 215.579571,64.2376721 215.551361,66.1894796 C215.052043,66.178032 214.745682,65.9662523 214.296579,65.9032908 C214.308991,64.4093854 214.227746,62.8181758 214.435936,61.5188787 C214.258777,61.0380816 213.933233,60.7061026 213.459869,60.5286655 C212.205087,60.5744558 212.140768,61.8336864 212.204522,63.2188401 C211.736236,63.3619344 211.987305,62.7781093 211.925807,62.5090919 L211.925807,59.6815468 C212.000282,59.1320643 211.676995,58.9889699 211.785885,58.4051448 L211.785885,58.1246798 C211.89929,58.0960609 211.925807,57.9815854 212.065165,57.9815854 C213.64267,58.5482392 215.620758,58.7142287 217.782775,58.6913336 C218.624562,60.900711 218.317073,64.2777385 220.711541,64.9130776 C222.327976,64.6669553 222.977935,63.4420673 223.919022,62.5090919 C224.607347,61.3643368 225.309213,60.2424768 225.871157,58.9717986 C231.227678,59.395358 236.858402,58.8973895 241.491054,58.1246798 C241.807006,59.4068055 241.544653,61.2727564 241.630411,62.7895569 Z M257.947097,26.0085753 C257.635658,25.6136348 257.404336,25.1442852 257.250309,24.5890789 C256.8785,24.2113098 256.513463,23.8278168 256.273677,23.3184008 C255.28012,22.3911491 254.176543,21.578373 253.066196,20.7713207 C251.722834,20.1989431 250.655931,19.3518243 249.161363,18.932844 C247.940997,18.2368329 246.609483,17.6541525 245.25653,17.0937949 C244.763982,16.6502023 244.150132,16.3302432 243.443188,16.1035817 C242.945563,15.6170608 242.103212,15.4819797 241.491054,15.1127962 C240.584383,14.9948864 240.043315,15.2478773 239.398998,15.3961231 C239.330729,14.6634798 238.729856,14.4700162 238.42293,13.9812057 C236.671651,13.1163433 234.956481,12.215421 233.123393,11.4341256 C231.422328,10.5188939 229.587547,9.73931569 227.963777,8.74624063 C226.021798,8.07484176 224.448807,7.02968035 222.245603,6.62386467 C221.908775,6.30505037 221.238504,6.3245112 220.711541,6.19858814 C220.229149,6.02859201 219.664949,5.94044587 219.038122,5.91640601 C217.832425,5.81852945 216.627856,5.72008051 215.272082,5.77502875 C215.094358,5.78246966 215.079125,5.95590006 214.854009,5.91640601 C211.991254,5.89007664 209.450659,6.90776393 207.602337,7.61407783 C207.292591,7.73255999 207.077066,7.94491206 206.904985,8.03878198 C206.757728,8.11948721 206.60483,8.11490819 206.486912,8.18073161 C205.515358,8.716477 204.621664,9.32834861 203.836861,9.87783106 C203.364061,10.2086653 202.995638,10.4965712 202.581515,10.8674718 C200.987083,12.9761108 200.161658,15.8649003 199.513391,18.932844 L199.513391,24.3086139 C200.058973,27.010236 201.138853,29.1680994 202.721436,30.8165467 C203.487057,31.6407704 204.415731,32.3047284 205.370923,32.9400675 C206.378021,33.5696828 207.664963,33.9131093 208.717762,34.4969344 C208.818754,34.7029903 208.753871,35.6817559 208.578404,36.0538013 C208.562607,36.7406544 208.653443,37.541983 208.439047,38.0342277 C208.446945,42.1267272 208.376985,46.2993596 208.578404,50.2029745 C208.613385,50.6837716 208.931594,50.87838 208.857684,51.4736526 C208.984065,51.8628694 208.900563,52.4695896 209.136399,52.7443308 C209.1285,53.8375719 209.676903,54.3698831 209.973673,55.1540403 C209.169122,56.4590611 209.4106,58.8229804 209.136399,60.6717599 C209.065309,62.863966 209.221029,64.827221 209.833751,66.3268502 C210.373127,66.6760005 210.639429,67.3056158 211.50717,67.3170633 C211.871644,67.8951647 212.701019,67.9924689 213.18059,68.4503709 C213.526445,68.4274758 213.75946,68.52478 213.877942,68.7365597 C215.326809,69.0113009 216.732233,69.3261086 218.201412,69.5836785 C219.87201,69.6351924 221.440488,69.7840106 223.082312,69.8641435 L233.54203,69.8641435 C235.665117,69.6122973 237.827699,69.4062414 239.677713,68.8739303 C241.452688,68.2729339 243.470834,67.912336 244.141105,66.1894796 C244.527018,66.126518 244.148439,65.7430251 243.861825,65.9032908 C243.6999,65.6972349 243.6999,65.5484167 243.861825,65.336637 C244.708126,63.321868 244.475112,59.6929943 244.141105,57.2718373 C244.184548,56.7051835 244.79727,56.716631 244.698535,56.0011591 C244.455365,54.907918 244.706434,54.0836943 244.837893,53.0305196 C244.861025,50.4147542 244.815889,47.8619503 244.559177,45.5323736 C244.494859,44.324657 244.705305,42.8364754 244.419256,41.851986 L244.419256,39.8715596 C244.439567,39.2304968 244.22912,38.3604829 244.97725,38.4577871 C245.384039,38.6981856 244.661298,38.9729269 244.837893,39.4480002 C244.840714,39.96314 245.234526,40.0833393 245.395887,40.4382134 C247.213742,41.2338182 249.236966,40.1978148 250.695425,39.7284652 C252.12793,38.9672031 253.397946,38.0399515 254.600258,37.0440145 C256.357743,35.0063504 258.069528,32.9228961 258.365734,29.4027742 C258.413691,28.080582 258.110151,27.113264 257.947097,26.0085753 L257.947097,26.0085753 Z" id="Fill-8" transform="translate(228.942100, 37.811689) rotate(-21.000000) translate(-228.942100, -37.811689) "></path>
                        </g>
                    </g>
                </g>
            </g>
        </g>
    </g>
</svg>