<svg xmlns="http://www.w3.org/2000/svg" xmlns:xlink="http://www.w3.org/1999/xlink" width="60" height="60" viewBox="0 0 60 60">
    <defs>
        <path id="a" d="M0 30V0h60v60H0V30z"/>
    </defs>
    <g fill="none" fill-rule="evenodd">
        <g>
            <mask id="b" fill="#fff">
                <use xlink:href="#a"/>
            </mask>
            <path fill="#000" d="M30 0C13.431 0 0 13.431 0 30c0 16.569 13.431 30 30 30 16.569 0 30-13.431 30-30C60 13.431 46.569 0 30 0m0 1.875a28.033 28.033 0 0 1 19.887 8.238A28.034 28.034 0 0 1 58.125 30a28.035 28.035 0 0 1-8.238 19.887A28.033 28.033 0 0 1 30 58.125a28.033 28.033 0 0 1-19.887-8.238A28.033 28.033 0 0 1 1.875 30a28.032 28.032 0 0 1 8.238-19.887A28.033 28.033 0 0 1 30 1.875" mask="url(#b)"/>
        </g>
        <path fill="#97979F" d="M13.418 18.107s-3.662 6.799-3.003 11.339c.66 4.54 7.75 6.356 7.75 6.356s-4.996-4.629-4.999-10.488c-.002-5.86.252-7.207.252-7.207"/>
        <path fill="#221F20" d="M14.425 27.719c.656 2.235 1.885 4.145 3.462 5.377 1.486 1.161 3.097 1.568 4.536 1.146 1.438-.422 2.574-1.634 3.197-3.414.661-1.89.665-4.16.01-6.395-.76-2.591-2.761-4.376-4.222-5.68-.45-.401-.838-.748-1.155-1.082-.382-.402-.795-.929-1.233-1.488-.585-.747-1.19-1.52-1.77-2.062-.644-.603-.897-.578-.899-.577-.311.092-.612.644-.825 1.515-.266 1.09-.37 2.52-.442 3.904-.057 1.086-.28 2.112-.497 3.104-.399 1.831-.775 3.56-.162 5.652m6.847 8.563c-1.532 0-3.097-.582-4.54-1.709-1.882-1.471-3.341-3.718-4.106-6.326-.748-2.55-.282-4.69.129-6.579.21-.961.407-1.87.456-2.804.18-3.4.513-6.503 2.613-7.119 1.71-.5 3.284 1.509 4.673 3.282.408.522.795 1.016 1.114 1.352.265.278.627.601 1.046.975 1.537 1.372 3.86 3.446 4.771 6.55.765 2.609.752 5.288-.038 7.543-.829 2.366-2.405 3.997-4.44 4.594-.55.161-1.111.24-1.678.24"/>
        <path fill="#221F20" d="M18.099 36.735c-1.4 0-2.842-.196-3.954-.804-1.646-.9-3.163-2.626-4.057-4.618-.744-1.657-1.424-4.273-.44-7.33 1.558-4.838 4.433-10.556 4.555-10.797a.937.937 0 1 1 1.674.845c-.03.057-2.932 5.83-4.444 10.527-1.448 4.499 1.299 8.464 3.611 9.728 2.01 1.098 6.112.363 7.522-.013a.938.938 0 0 1 .483 1.812c-.15.04-2.483.65-4.95.65"/>
        <path fill="#221F20" d="M19.787 22.588c-.139 0-.26.016-.36.045-.749.22-.745 1.954.01 4.527.419 1.43.878 2.495 1.366 3.164.578.796.937.69 1.072.65 1.027-.3 2.55-2.705 1.855-5.073-.307-1.047-1.053-2.014-2.047-2.654-.73-.47-1.417-.66-1.896-.66m1.91 10.292c-1.16 0-1.986-.868-2.41-1.452-.615-.844-1.17-2.102-1.65-3.739s-.693-2.995-.632-4.038c.05-.859.363-2.367 1.895-2.816 1.075-.316 2.495-.003 3.798.836 1.388.894 2.393 2.209 2.831 3.703.944 3.215-.93 6.757-3.126 7.401a2.5 2.5 0 0 1-.707.105"/>
        <path fill="#97979F" d="M43.555 21.65s2.909 8.267-1.15 15.458c-4.06 7.19-9.107 8.388-11.702 9.534-1.113 2.233 12.637-1.214 14.824-8.437 4.922-11.41-1.972-16.554-1.972-16.554"/>
        <path fill="#221F20" d="M30.712 48.317h-.017a.938.938 0 0 1 .008-1.875h.006c.014-.003 2.53-.004 5.64-1.367 4.136-1.813 7.326-5.053 9.482-9.628 2.034-4.803 1.364-9.332-1.993-13.46-2.579-3.17-5.846-4.914-5.879-4.931a.942.942 0 0 1-.179-.122c-3.058-2.658-7.56-1.73-8.308-1.551-.301.187-1.044.74-.692 1.485.2.304 1.816 2.685 5.12 5.343 2.339 1.563 3.857 3.211 4.775 5.182 1.128 2.42 1.345 5.336.663 8.913-.768 4.038-2.732 6.184-4.244 7.273-1.676 1.207-3.197 1.425-3.261 1.434a.938.938 0 0 1-.252-1.858c.185-.028 4.692-.77 5.916-7.2 1.35-7.096-1.447-10.06-4.672-12.207a.995.995 0 0 1-.068-.049c-3.81-3.059-5.518-5.757-5.588-5.87a.917.917 0 0 1-.039-.067c-.963-1.871.394-3.466 1.541-4.082a.947.947 0 0 1 .193-.077c.244-.068 5.99-1.61 10.066 1.846.603.332 3.729 2.138 6.323 5.307 3.814 4.66 4.608 9.999 2.297 15.44l-.015.033c-2.953 6.278-7.352 9.23-10.522 10.601-3.351 1.45-6.04 1.487-6.301 1.487"/>
        <path fill="#221F20" d="M47.59 27.415a.94.94 0 0 1-.856-1.321c.053-.121 1.17-2.563 4.171-3.453-2.336-1.902-6.778-2.556-8.548-2.647a.938.938 0 0 1 .094-1.873c.346.018 8.494.474 11.064 4.662a.938.938 0 0 1-.742 1.426c-3.163.196-4.282 2.55-4.328 2.65a.933.933 0 0 1-.854.556M33.298 36.388a.938.938 0 0 1-.89-1.233c.974-2.938 1.804-10.201 1.812-10.274a.937.937 0 0 1 1.863.21c-.028.253-.596 5.219-1.375 8.701 1.247-.626 2.474-1.394 2.832-1.993a.938.938 0 0 1 1.61.963c-1.055 1.76-4.777 3.276-5.512 3.562a.935.935 0 0 1-.34.064M21.204 48.207c1.763.582 4.951 1.074 7.994-1.348l.495-2.337a.954.954 0 0 1 .038-.134c-.426-2.562-2.577-4.57-3.976-5.632-.169 1.382-.459 3.396-.859 4.848-.475 1.726-2.365 3.518-3.692 4.603m2.894 2.341c-.476 0-.922-.032-1.33-.084-2.248-.284-3.816-1.185-3.881-1.223a.937.937 0 0 1-.061-1.582c1.033-.714 3.814-2.924 4.262-4.553.61-2.212.967-6.046.97-6.084a.938.938 0 0 1 1.394-.731c.222.125 5.453 3.12 6.153 7.944a.935.935 0 0 1-.057.483.95.95 0 0 1-.021.192l-.402 1.899a.936.936 0 0 1-.233 1.073c-2.35 2.105-4.825 2.666-6.794 2.666M33.624 18.032a1.13 1.13 0 1 1-1.81-1.356 1.13 1.13 0 0 1 1.81 1.356"/>
    </g>
</svg>
