<svg xmlns="http://www.w3.org/2000/svg" width="61" height="60" viewBox="0 0 61 60">
    <g fill="none" fill-rule="evenodd">
        <path fill="#000" d="M30.667 0c-16.569 0-30 13.431-30 30 0 16.569 13.431 30 30 30 16.568 0 30-13.431 30-30 0-16.569-13.432-30-30-30m0 1.875a28.033 28.033 0 0 1 19.887 8.238A28.033 28.033 0 0 1 58.792 30a28.033 28.033 0 0 1-8.238 19.887 28.035 28.035 0 0 1-19.887 8.238 28.035 28.035 0 0 1-19.887-8.238A28.035 28.035 0 0 1 2.541 30a28.035 28.035 0 0 1 8.238-19.887 28.033 28.033 0 0 1 19.887-8.238"/>
        <path fill="#97979F" d="M19.095 19.506h-.078a10.416 10.416 0 0 1-2.585-.36 1.875 1.875 0 0 1 1.038-3.602c.848.238 2.706.409 3.168-.273a1.875 1.875 0 0 1 3.105 2.102c-.66.976-2.003 2.133-4.648 2.133M18.322 29.475c1.913 1.147 4.03-1.069 7.584-.214 3.02.727 5.017 3.928 6.671 2.58.069-1.815-.862-3.944-6.767-5.12-5.906-1.175-9.401 1.608-7.488 2.754"/>
        <path fill="#221F20" d="M18.186 29.456a.935.935 0 0 1-.724-.34c-1.533-1.86-3.716-2.84-5.99-2.69a.936.936 0 1 1-.123-1.87c2.882-.19 5.637 1.036 7.56 3.366a.937.937 0 0 1-.723 1.534M12.591 44.303a.938.938 0 0 1-.06-1.873c3.468-.23 6.317-3.11 6.774-6.85a.937.937 0 1 1 1.861.227c-.565 4.633-4.145 8.205-8.512 8.494a.939.939 0 0 1-.063.002M40.987 28.032a.938.938 0 0 1-.852-.545c-1.105-2.398-2.671-4.342-4.298-5.333-4.546-2.77-7.01-6.573-7.517-7.412-2.391-1.903-7.366-4.557-8.784-4.11-1.507.475-2.054 1.524-2.995 3.794.096.105.22.185.378.246 1.38.53 4.282-.61 5.19-1.051a.938.938 0 0 1 .82 1.686c-.434.21-4.302 2.031-6.683 1.115a2.768 2.768 0 0 1-1.617-1.577.938.938 0 0 1 .003-.707l.03-.074c1.02-2.479 1.824-4.437 4.31-5.22 2.796-.882 9.122 3.29 10.662 4.55.09.073.166.163.224.264.022.04 2.36 4.096 6.955 6.895 1.936 1.18 3.768 3.421 5.025 6.149a.938.938 0 0 1-.85 1.33"/>
        <path fill="#221F20" d="M25.809 40.283c-3.897 0-6.405-1.14-6.536-1.2a.937.937 0 0 1 .789-1.701c.055.024 3.609 1.607 8.704.788.95-.153 1.873-.42 2.825-.816a.938.938 0 0 1 .72 1.73c-1.089.454-2.15.76-3.247.937a20.507 20.507 0 0 1-3.255.262M32.291 32.094a.934.934 0 0 1-.65-.262c-.648-.625-1.161-1.282-1.614-1.861-1.32-1.691-2.275-2.913-5.88-2.675-2.047.136-3.322.566-4.031.903-.75.357-1.034.684-1.037.687l.016-.02-1.492-1.135c.154-.203 1.644-1.99 6.42-2.305 4.597-.304 6.064 1.574 7.482 3.39.434.557.884 1.133 1.437 1.665a.938.938 0 0 1-.65 1.613"/>
        <path fill="#221F20" d="M28.552 27.963a.937.937 0 0 1-.803-.451c-.904-1.492-1.003-3.073-1.098-4.603-.115-1.853-.217-3.483-1.666-4.924-1.166 1-3.858 2.423-9.041 1.1a.939.939 0 0 1-.326-.154c-1.34-.993-.441-3.249-.247-3.691a.937.937 0 0 1 1.718.751c-.203.467-.34 1.068-.324 1.366 5.516 1.293 7.238-.99 7.363-1.17a.903.903 0 0 1 .616-.431.927.927 0 0 1 .745.188c2.738 2.094 2.895 4.62 3.034 6.85.084 1.362.164 2.65.83 3.745a.938.938 0 0 1-.801 1.424"/>
        <path fill="#97979F" d="M36.955 30.622s1.56 6.063 3.213 8.017c1.654 1.953 6.904 4.741 6.904 5.648-2.793.558-6.23.152-9.14-3.48-2.91-3.634-2.891-7.138-.977-10.185M48.775 43.85a1.875 1.875 0 0 1-1.082-3.408c.465-.327.697-1.083.638-2.075-.08-1.316-.672-2.848-1.626-4.2-.953-1.354-2.196-2.427-3.41-2.945-.913-.39-1.703-.425-2.168-.098a1.875 1.875 0 0 1-2.16-3.065c1.55-1.093 3.664-1.197 5.8-.286 1.863.795 3.64 2.298 5.004 4.233 1.363 1.935 2.18 4.114 2.303 6.136.14 2.317-.67 4.273-2.22 5.366a1.866 1.866 0 0 1-1.079.342"/>
        <path fill="#221F20" d="M42.899 36.715c1.688 2.395 3.912 3.506 4.772 2.9.86-.607.562-3.075-1.125-5.47-1.688-2.396-3.912-3.506-4.773-2.9-.86.607-.562 3.075 1.126 5.47m4.194 4.935c-1.804 0-4.01-1.42-5.727-3.855-2.297-3.26-2.586-6.734-.673-8.083 1.914-1.348 5.089.093 7.385 3.353 2.297 3.26 2.587 6.734.673 8.082-.483.34-1.048.503-1.658.503"/>
        <path fill="#221F20" d="M41.78 28.328c-.642 0-1.226.161-1.709.502-.94.663-1.404 1.943-1.304 3.604.11 1.826.88 3.838 2.167 5.665 2.522 3.578 6.387 5.377 8.44 3.93 2.052-1.446 1.657-5.69-.864-9.268-1.928-2.736-4.641-4.433-6.73-4.433m5.89 16.08c-.9 0-1.867-.212-2.865-.638-1.999-.852-3.917-2.483-5.403-4.591-1.486-2.108-2.376-4.464-2.506-6.633-.141-2.333.603-4.198 2.095-5.249 1.492-1.051 3.498-1.125 5.649-.208 1.998.853 3.917 2.483 5.403 4.592 1.485 2.108 2.375 4.463 2.506 6.632.14 2.334-.604 4.198-2.096 5.25-.799.563-1.746.845-2.783.845"/>
        <path fill="#221F20" d="M39.699 47.482c-1.489 0-2.851-.251-4.055-.75-1.383-.57-2.492-1.44-3.297-2.582-.805-1.142-1.25-2.478-1.323-3.973-.068-1.4.193-2.878.778-4.392 1.17-3.032 3.522-5.904 6.62-8.087a.938.938 0 0 1 1.08 1.532c-2.799 1.973-4.912 4.54-5.951 7.23-.988 2.56-.872 4.907.329 6.61 1.2 1.704 3.368 2.603 6.114 2.533 2.882-.073 6.011-1.2 8.81-3.172a.938.938 0 0 1 1.08 1.532c-3.098 2.184-6.594 3.432-9.842 3.515-.115.003-.23.004-.343.004"/>
        <path fill="#221F20" d="M29.586 45.225a.936.936 0 0 1-.54-1.704l2.676-1.886a.938.938 0 0 1 1.08 1.532l-2.677 1.887a.934.934 0 0 1-.54.171"/>
        <path fill="#221F20" d="M27.328 48.605a.932.932 0 0 1-.27-.04 3.022 3.022 0 0 1-1.596-1.15 2.991 2.991 0 0 1-.505-2.248 2.992 2.992 0 0 1 1.232-1.947c1.426-1.006 3.138-.775 4.07.548a.937.937 0 0 1-1.533 1.08c-.39-.554-1.029-.398-1.457-.096a1.129 1.129 0 0 0-.465.735c-.052.299.016.6.19.848.149.21.357.36.602.434a.937.937 0 0 1-.268 1.836M31.308 47.67a.936.936 0 0 1-.54-1.705l2.676-1.886a.937.937 0 0 1 1.08 1.533l-2.676 1.886a.934.934 0 0 1-.54.171"/>
        <path fill="#221F20" d="M29.44 50.838a3.01 3.01 0 0 1-3.011-3.166.937.937 0 0 1 1.872.098 1.137 1.137 0 0 0 1.79.987c.283-.2.476-.455.543-.718.06-.24.014-.464-.143-.687a.937.937 0 1 1 1.532-1.08c.472.67.624 1.461.428 2.23-.178.696-.632 1.33-1.28 1.787a2.995 2.995 0 0 1-1.73.549"/>
        <path fill="#010202" d="M47.528 37.263c.25.688.091 1.377-.355 1.54-.446.162-1.01-.265-1.26-.952-.25-.688-.091-1.377.355-1.54.446-.162 1.01.265 1.26.952M44.18 34.707c.422.598.45 1.305.062 1.578-.388.274-1.045.01-1.466-.588-.422-.598-.449-1.305-.061-1.578.388-.274 1.044-.01 1.466.588M46.217 34.631c.174.555.024 1.097-.336 1.21-.36.113-.794-.245-.968-.8-.174-.556-.023-1.098.337-1.21.36-.114.793.245.967.8"/>
        <path fill="#97979F" d="M49.787 27.267a.938.938 0 0 1-.896-.663 18.345 18.345 0 0 0-4.555-7.555 18.109 18.109 0 0 0-7.329-4.484.937.937 0 1 1 .574-1.785 19.969 19.969 0 0 1 8.08 4.943 20.226 20.226 0 0 1 5.022 8.33.938.938 0 0 1-.896 1.214"/>
    </g>
</svg>
