<?xml version="1.0" encoding="UTF-8"?>
<svg width="51px" height="41px" viewBox="0 0 51 41" version="1.1" xmlns="http://www.w3.org/2000/svg" xmlns:xlink="http://www.w3.org/1999/xlink">
    <!-- Generator: Sketch 43.1 (39012) - http://www.bohemiancoding.com/sketch -->
    <title>icon</title>
    <desc>Created with Sketch.</desc>
    <defs></defs>
    <g id="Login-/-Register" stroke="none" stroke-width="1" fill="none" fill-rule="evenodd">
        <g id="Registration---E-mail-send" transform="translate(-225.000000, -244.000000)" fill="#1A1918">
            <g id="lightbox">
                <path d="M264.631675,281.50625 L261.975425,281.50625 C261.293725,281.674975 260.30645,281.5377 259.6375,281.71875 L258.15,281.71875 C257.781525,281.633325 257.742,281.878125 257.40625,281.82585 L255.06875,281.82585 C254.563425,281.886625 254.089125,281.978425 253.475,281.93125 C253.558725,281.518575 254.165625,281.630775 254.431675,281.40085 C258.364625,281.4017 261.864075,280.970325 265.69375,280.8696 C265.86545,280.8985 265.8765,280.768025 266.0125,280.7625 L266.544175,280.7625 C266.39755,281.50115 265.582825,281.572125 264.631675,281.50625 Z M255.06875,273.9625 C255.28805,273.40235 255.6323,272.968 255.919175,272.47585 C256.49845,271.531925 257.274075,270.78435 257.937925,269.92585 C259.505325,268.694625 260.937575,267.3291 263.781675,267.375 C264.218575,267.61045 264.658025,267.843775 265.056675,268.1196 C265.131475,269.0393 265.131475,269.5357 265.056675,270.45625 C264.82845,270.794975 264.76215,271.2952 264.525,271.62585 C264.358825,272.02535 264.110625,272.344525 263.887925,272.6875 C263.411075,273.308425 262.768475,273.76445 262.29375,274.38835 C259.920975,276.01695 257.5346,277.632375 254.75,278.85 C254.900875,278.39865 255.240875,278.13685 255.49375,277.78835 C255.79125,277.48235 255.965075,277.0548 256.34375,276.83125 C256.869475,276.152525 257.55075,275.629775 258.15,275.025 C258.833825,274.504375 259.6103,274.07725 260.169175,273.4321 C260.6337,273.293975 260.83685,272.895325 261.125425,272.5821 C261.4616,272.316475 261.8152,272.068275 261.7625,271.4125 C261.250375,270.7036 260.05145,271.361075 259.53125,271.62585 C258.82065,271.9412 258.221825,272.3696 257.619175,272.79375 C257.0059,273.208125 256.51715,273.746175 255.919175,274.175 C255.716025,274.467825 255.467825,274.7156 255.175,274.91875 C255.143975,275.135075 254.8877,275.127 254.856675,275.34375 C254.825225,275.4381 254.56895,275.809125 254.5375,275.5571 C254.3403,275.042 254.80015,274.355625 255.06875,273.9625 Z M251.9875,275.6625 C251.7461,275.913675 251.6696,275.5299 251.5625,275.34375 C251.3279,275.260025 251.296875,274.972725 251.1375,274.8125 C250.89355,274.454225 250.52465,274.22175 250.2875,273.8571 C249.56755,273.37175 249.254325,272.48095 248.05625,272.47585 C247.623175,272.5379 247.3754,272.785675 247.312925,273.21875 C247.272975,273.8962 247.718375,274.0883 248.05625,274.38835 C248.3308,274.750875 248.649125,275.069625 249.0125,275.34375 C249.165925,275.827825 249.606225,276.02545 249.75625,276.51335 C250.1141,276.756875 250.1889,277.2843 250.500425,277.575 C250.259025,277.843175 249.7962,277.435175 249.544175,277.36335 C249.1757,277.305975 248.978075,277.078175 248.5875,277.0446 C248.001425,276.4615 247.228775,276.0654 246.56875,275.5571 C245.32775,274.21155 244.32815,272.625875 244.337925,270.03125 L244.337925,269.8196 C244.42335,269.7992 244.443325,269.7125 244.55,269.7125 L246.675,269.7125 C248.3223,269.978125 249.370775,270.841725 250.2875,271.8375 C250.706975,272.279925 251.231,272.82095 251.5625,273.4321 C251.709975,273.7024 251.912275,274.14015 251.9875,274.49375 C252.066125,274.8635 252.140925,275.233675 251.9875,275.6625 Z M241.150425,281.50625 L241.150425,281.1875 C241.474275,281.1161 242.4182,281.23595 243.0625,281.1875 C242.61285,281.468425 241.634075,281.5904 241.150425,281.50625 Z M238.3875,281.6125 L238.3875,281.1875 C238.9247,281.13225 239.61575,280.932925 239.875425,281.40085 C239.6574,281.714075 238.784875,281.81905 238.3875,281.6125 Z M236.9,281.82585 C236.4274,281.7417 236.262925,281.96695 235.837925,281.93125 C235.465625,281.843275 235.34025,281.50795 235.2,281.1875 L236.9,281.1875 L236.9,281.82585 Z M273.34375,278.7446 C270.8422,278.801125 268.705725,278.494275 266.225,278.53125 C263.842875,278.59245 261.722125,278.91545 259.425425,279.0625 C260.04295,278.44115 260.91505,278.0731 261.65625,277.575 C262.410625,277.054375 263.09785,276.466175 263.887925,275.9821 C265.383925,274.4674 266.805975,272.879175 267.18125,270.2446 L267.18125,268.5446 C267.0002,267.945775 266.97045,267.196925 266.65,266.73835 C266.468525,266.10425 266.018875,265.739175 265.587925,265.3571 C264.4485,265.432325 263.802075,265.016675 262.6125,265.14375 C257.968525,265.882825 255.634,268.93135 253.475,272.15625 C252.06655,270.1647 250.4082,268.42305 247.737925,267.69375 C245.811825,267.3886 243.604375,267.6487 242.637925,268.65 C242.64345,268.83275 242.5559,268.922 242.425425,268.9696 C242.133875,269.740125 242.21845,270.887625 242.2125,271.94375 C242.41395,273.15925 242.836825,274.1529 243.275,275.1321 C243.5096,275.39305 243.800725,275.597475 243.9125,275.9821 C244.586125,276.5839 245.2521,277.19165 245.93125,277.78835 C246.318,278.03825 246.612525,278.38165 247.1,278.53125 C247.249175,278.70125 247.465925,278.8024 247.737925,278.85 C247.796575,279.0846 248.353325,278.988125 248.05625,279.275 C244.102475,278.943075 239.6642,279.096075 235.412925,279.0625 C234.98495,279.130925 234.282425,278.92395 234.031675,279.1696 C233.1379,279.231225 231.9887,279.0387 231.26875,279.275 L228.400425,279.275 C228.085075,279.455625 227.52535,279.391875 227.125,279.4875 C226.748025,279.606075 226.40675,279.760775 226.38125,280.23125 C226.487925,280.55085 226.7,280.7625 227.019175,280.8696 C227.324325,280.9886 227.8475,280.89 228.08125,281.08125 C228.983525,281.06425 229.862425,281.07105 230.63125,281.1875 L232.331675,281.1875 C233.24755,281.900225 233.6802,283.097025 234.456675,283.95 C234.928425,284.115325 235.3564,284.324425 235.837925,284.4821 C235.920375,284.50505 236.04745,284.484225 236.05,284.5875 C239.77895,284.562 243.57165,284.600675 246.994175,284.26875 C248.792775,284.345675 250.538675,284.148475 252.200425,284.0571 C253.9221,283.9602 255.54985,283.941075 257.19375,283.84375 C260.684275,283.636775 264.0864,283.436175 268.137925,283.52585 C268.42565,283.033275 268.605425,282.434875 268.88125,281.93125 C268.93055,281.590825 269.28585,281.556825 269.30625,281.1875 C269.61735,281.10845 269.51195,280.614175 269.944175,280.65625 C271.16265,280.6061 272.2311,280.706825 273.34375,280.7625 C273.9906,280.6826 274.30765,280.9325 274.9375,280.8696 C275.6498,280.978825 275.6396,280.366825 276,280.125 C275.66425,279.114775 274.430475,279.002575 273.34375,278.7446 Z M231.056675,269.07585 C231.456175,269.1209 231.540325,268.850175 231.69375,268.65 C232.00485,268.6075 231.77875,268.026525 232.012925,267.90625 L232.012925,265.7821 C232.127675,265.29505 232.176125,264.740425 232.225425,264.1875 C232.562025,263.710225 232.555225,262.8887 232.96875,262.4875 C233.202075,261.905675 233.409475,261.29835 233.81875,260.89375 C233.9964,260.2571 234.452,259.8984 234.775,259.40625 C235.064,258.844825 235.59015,258.5214 235.837925,257.9196 C236.7113,257.163525 237.35815,256.18135 238.28125,255.475 C238.97315,254.476675 240.390525,254.16345 240.40625,252.6071 C240.173775,252.308325 239.962125,251.98745 239.344175,252.07585 C239.2001,252.108575 239.141025,252.2263 238.919175,252.1821 C236.809475,253.5081 235.21955,255.353025 233.606675,257.175 C232.139575,259.1436 230.743025,261.182325 230.100425,263.975 C230.176925,264.2997 229.9912,264.3626 229.994175,264.61335 L229.994175,267.375 C230.054525,268.235625 230.142075,269.0682 231.056675,269.07585 Z M228.400425,265.0375 C228.74255,263.8934 228.871325,262.53425 229.4625,261.6375 C229.728975,260.45175 230.352875,259.623 230.63125,258.45085 C231.69375,256.5732 232.9985,254.938225 234.35,253.35 C235.0606,252.85615 235.829,252.420525 236.475,251.8625 C236.79035,251.71715 236.59315,251.059675 236.794175,250.80085 C237.25105,250.570925 237.7636,250.3274 238.175425,249.95085 C238.483125,249.8684 238.78615,249.782125 238.919175,249.52585 C239.201375,249.4536 239.459775,249.357975 239.6625,249.20625 C240.67315,248.76425 241.6753,248.3146 242.74375,247.93125 C244.946525,247.23 247.183725,246.56275 249.969175,246.44375 C250.14045,246.473925 250.151925,246.343025 250.2875,246.33835 C254.4967,246.094825 257.4428,247.1161 259.425425,249.1 C259.712725,249.379225 259.682975,249.9755 260.0625,250.1625 C260.24355,250.5127 260.3906,250.8969 260.4875,251.3321 C260.387625,251.7979 259.832575,251.810225 259.53125,252.07585 C259.2686,252.343175 259.11305,252.719725 258.7875,252.92585 C258.330625,253.565475 257.58645,253.919075 257.087925,254.51875 C256.318675,254.8477 255.86605,255.493275 255.06875,255.7946 C254.524325,256.311825 253.7521,256.602525 253.156675,257.06875 C251.74185,257.814625 250.392475,258.62595 249.0125,259.40625 C248.26195,259.7539 247.623175,260.212475 246.887925,260.57585 C246.207925,260.95835 245.62695,261.43945 244.86875,261.74375 C244.355775,262.328975 243.46965,262.540625 242.956675,263.12585 C242.51,263.245275 242.32555,263.627775 241.89375,263.76335 C241.6124,264.0124 241.2894,264.22065 240.9375,264.4 C240.36205,264.922325 239.665475,265.3231 239.025425,265.7821 C238.4606,266.278925 237.738525,266.619775 237.219175,267.16335 C236.4529,267.49485 235.9497,268.089 235.2,268.4375 C234.686175,268.98575 233.883775,269.245425 233.39375,269.8196 C232.681875,270.20465 232.096225,270.7172 231.481675,271.20085 C231.1353,271.384875 230.949575,271.73125 230.525425,271.8375 C230.2989,272.143075 230.060475,272.435475 229.569175,272.47585 C229.1684,271.246325 228.63375,270.15195 228.294175,268.8625 C228.3014,267.55945 228.24445,266.192225 228.400425,265.0375 Z M235.09375,248.25 C235.242925,248.6036 235.318575,249.3499 234.775,249.3125 C234.426925,249.236 234.360625,248.8773 234.35,248.4625 C234.5863,248.379625 234.764375,248.239375 235.09375,248.25 Z M227.550425,275.34375 C227.603125,275.787025 228.03025,275.855025 228.400425,275.9821 C230.1255,275.262575 231.237725,273.93105 232.756675,273.00625 C233.383125,272.3934 234.19615,271.9667 234.881675,271.4125 C235.6437,270.935225 236.302875,270.354675 237.112925,269.92585 C237.76615,269.374625 238.5116,268.916475 239.2375,268.4375 C240.0059,267.918575 240.664225,267.32825 241.46875,266.95 C241.739475,266.6185 242.153425,266.430225 242.531675,266.20625 C242.874225,265.9113 243.209975,265.60955 243.7,265.46335 C244.340475,264.86325 245.175175,264.45865 245.93125,263.975 C248.902425,262.022975 252.213175,260.411375 255.281675,258.55625 C256.71095,257.5422 258.303425,256.6905 259.53125,255.475 C260.226975,254.930575 260.750575,254.214875 261.44375,253.66875 C262.093575,253.07885 263.039625,252.785175 263.14375,251.65085 C263.247875,250.76685 262.776975,250.458725 262.50625,249.95085 C262.316275,249.325675 262.0124,248.814825 261.7625,248.25 C260.7544,247.1331 259.728025,246.034475 258.25625,245.3821 C256.871175,244.60605 255.1597,244.15725 253.156675,244 L249.650425,244 C249.514425,244.00595 249.50295,244.13685 249.33125,244.1071 C246.77615,244.2431 244.658375,244.816425 242.637925,245.48835 C241.622175,245.817725 240.61195,246.153475 239.769175,246.65625 C238.7003,246.93335 237.95995,247.538975 237.00625,247.93125 C236.74785,247.729375 236.7742,247.242325 236.475,247.08125 C236.347075,246.7132 235.919525,246.644775 235.625,246.44375 C234.4877,246.297975 233.891,246.692375 233.181675,246.975 C233.04015,247.329875 232.5599,247.3456 232.4375,247.7196 C232.406475,247.9355 232.1502,247.927425 232.11875,248.1446 C231.935575,248.20835 232.126825,248.647375 231.906675,248.67585 C231.825925,249.782975 232.069875,250.565825 232.54375,251.11875 C228.979275,254.424825 225.90865,258.225175 225,264.1875 L225,267.69375 C225.26435,269.377175 225.623475,270.96625 226.169175,272.36875 C226.402075,273.091675 226.7306,273.7194 226.912925,274.49375 C227.042125,274.8601 227.343025,275.055175 227.550425,275.34375 L227.550425,275.34375 Z" id="icon"></path>
            </g>
        </g>
    </g>
</svg>