<svg xmlns="http://www.w3.org/2000/svg" xmlns:xlink="http://www.w3.org/1999/xlink" width="61" height="60" viewBox="0 0 61 60">
    <defs>
        <path id="a" d="M0 30v30h60V0H0v30z"/>
    </defs>
    <g fill="none" fill-rule="evenodd">
        <g transform="translate(.5)">
            <mask id="b" fill="#fff">
                <use xlink:href="#a"/>
            </mask>
            <path fill="#FEFEFE" d="M30 0C13.431 0 0 13.431 0 30c0 16.569 13.431 30 30 30 16.569 0 30-13.431 30-30C60 13.431 46.569 0 30 0m0 1.875a28.035 28.035 0 0 1 19.887 8.238A28.033 28.033 0 0 1 58.125 30a28.033 28.033 0 0 1-8.238 19.887A28.035 28.035 0 0 1 30 58.125a28.035 28.035 0 0 1-19.887-8.238A28.035 28.035 0 0 1 1.875 30a28.035 28.035 0 0 1 8.238-19.887A28.035 28.035 0 0 1 30 1.875" mask="url(#b)"/>
        </g>
        <path fill="#97979F" d="M18.913 18.566a9.374 9.374 0 0 1-2.387-.32.937.937 0 0 1 .521-1.8c.05.013 3.183.853 4.2-.65a.937.937 0 1 1 1.553 1.051c-.933 1.379-2.535 1.719-3.887 1.719M18.155 29.475c1.914 1.147 4.03-1.07 7.584-.214 3.02.727 5.018 3.928 6.671 2.58.07-1.815-.861-3.944-6.767-5.12-5.905-1.175-9.4 1.608-7.488 2.754"/>
        <path fill="#FEFEFE" d="M18.02 29.456a.935.935 0 0 1-.724-.34c-1.534-1.86-3.717-2.839-5.99-2.69a.936.936 0 1 1-.124-1.87c2.883-.191 5.638 1.036 7.56 3.366a.937.937 0 0 1-.723 1.534M12.425 44.303a.938.938 0 0 1-.061-1.873c3.469-.23 6.318-3.11 6.774-6.85a.936.936 0 1 1 1.861.227c-.565 4.633-4.145 8.205-8.512 8.494a.939.939 0 0 1-.062.002M40.82 28.032a.938.938 0 0 1-.852-.545c-1.105-2.398-2.671-4.342-4.298-5.333-4.546-2.77-7.01-6.573-7.517-7.412-2.39-1.903-7.366-4.557-8.784-4.11-1.507.475-2.053 1.524-2.995 3.794.097.105.22.185.379.246 1.38.53 4.281-.61 5.189-1.051a.938.938 0 0 1 .82 1.686c-.433.21-4.301 2.031-6.683 1.115a2.768 2.768 0 0 1-1.617-1.577.938.938 0 0 1 .003-.707l.03-.074c1.02-2.479 1.825-4.437 4.311-5.22 2.794-.88 9.121 3.29 10.662 4.55.09.073.166.163.223.265.022.039 2.36 4.095 6.955 6.894 1.937 1.18 3.768 3.421 5.025 6.149a.938.938 0 0 1-.85 1.33"/>
        <path fill="#FEFEFE" d="M25.642 40.283c-3.896 0-6.405-1.14-6.535-1.2a.937.937 0 0 1 .788-1.701c.055.025 3.61 1.607 8.704.788.95-.153 1.873-.42 2.825-.816a.937.937 0 1 1 .72 1.73c-1.088.454-2.15.76-3.247.937a20.492 20.492 0 0 1-3.255.262M32.125 32.094a.934.934 0 0 1-.65-.262c-.65-.625-1.162-1.282-1.615-1.861-1.32-1.691-2.274-2.913-5.88-2.675-2.046.136-3.322.566-4.03.903-.751.357-1.035.684-1.037.687l.015-.02-1.492-1.135c.154-.203 1.644-1.99 6.42-2.305 4.597-.304 6.064 1.574 7.482 3.39.435.557.884 1.133 1.437 1.665a.938.938 0 0 1-.65 1.613"/>
        <path fill="#FEFEFE" d="M28.385 27.963a.937.937 0 0 1-.803-.451c-.904-1.492-1.002-3.073-1.098-4.602-.115-1.854-.216-3.484-1.666-4.925-1.165 1-3.857 2.423-9.04 1.1a.937.937 0 0 1-.327-.154c-1.34-.993-.44-3.249-.247-3.691a.937.937 0 0 1 1.718.751c-.202.467-.34 1.068-.323 1.366 5.515 1.293 7.237-.99 7.362-1.17a.903.903 0 0 1 .616-.431.926.926 0 0 1 .746.188c2.737 2.094 2.894 4.62 3.033 6.85.085 1.362.165 2.65.83 3.746a.937.937 0 0 1-.801 1.423"/>
        <path fill="#97979F" d="M36.788 30.622s1.56 6.064 3.214 8.017c1.653 1.953 6.903 4.741 6.903 5.648-2.792.558-6.23.152-9.14-3.48-2.91-3.633-2.89-7.138-.977-10.185M48.608 42.913a.936.936 0 0 1-.541-1.704c1.478-1.042 1.525-4.338-.762-7.583s-5.406-4.31-6.885-3.268a.937.937 0 1 1-1.08-1.533c2.576-1.815 6.748-.18 9.498 3.721 2.75 3.902 2.885 8.38.309 10.196a.933.933 0 0 1-.54.17"/>
        <path fill="#FEFEFE" d="M42.732 36.715c1.688 2.395 3.912 3.506 4.773 2.9.86-.607.562-3.075-1.126-5.47-.834-1.184-1.887-2.158-2.888-2.673-.799-.41-1.503-.496-1.884-.227-.861.607-.563 3.075 1.125 5.47m4.194 4.936c-1.804 0-4.01-1.42-5.727-3.856-2.296-3.26-2.586-6.734-.672-8.083.99-.698 2.348-.665 3.822.093 1.28.658 2.545 1.816 3.563 3.26 2.297 3.26 2.586 6.734.673 8.082-.484.34-1.049.504-1.659.504"/>
        <path fill="#FEFEFE" d="M41.616 28.328c-.656 0-1.237.167-1.711.502-.941.663-1.404 1.943-1.304 3.604.11 1.826.88 3.838 2.167 5.665 1.288 1.827 2.923 3.229 4.606 3.947 1.53.652 2.891.647 3.833-.016 2.053-1.447 1.657-5.692-.864-9.27-1.287-1.827-2.923-3.228-4.606-3.946-.759-.324-1.476-.486-2.121-.486m5.887 16.08c-.899 0-1.866-.212-2.865-.638-1.998-.852-3.917-2.483-5.403-4.591-1.485-2.108-2.375-4.464-2.506-6.632-.14-2.334.604-4.199 2.096-5.25 1.492-1.051 3.497-1.125 5.648-.208 1.999.853 3.917 2.483 5.403 4.592 1.486 2.108 2.376 4.463 2.506 6.632.14 2.334-.603 4.198-2.095 5.25-.8.563-1.746.845-2.784.845"/>
        <path fill="#FEFEFE" d="M39.532 47.482c-1.488 0-2.85-.251-4.055-.75-1.383-.57-2.492-1.44-3.297-2.582-.804-1.142-1.25-2.478-1.323-3.973-.068-1.4.194-2.878.778-4.392 1.171-3.032 3.522-5.904 6.62-8.087a.938.938 0 0 1 1.081 1.532c-2.8 1.973-4.913 4.54-5.952 7.23-.988 2.56-.871 4.907.33 6.61 1.2 1.704 3.368 2.603 6.113 2.533 2.883-.073 6.012-1.2 8.811-3.172a.938.938 0 0 1 1.08 1.532c-3.099 2.184-6.594 3.432-9.843 3.515-.115.003-.23.004-.343.004"/>
        <path fill="#FEFEFE" d="M29.42 45.225a.936.936 0 0 1-.542-1.704l2.677-1.886a.938.938 0 0 1 1.08 1.532l-2.676 1.887a.933.933 0 0 1-.54.17"/>
        <path fill="#FEFEFE" d="M27.161 48.605a.937.937 0 0 1-.27-.04 3.022 3.022 0 0 1-1.596-1.15 2.99 2.99 0 0 1-.505-2.248 2.992 2.992 0 0 1 1.232-1.948c1.426-1.004 3.138-.774 4.07.549a.938.938 0 0 1-1.532 1.08c-.39-.554-1.03-.398-1.458-.096a1.129 1.129 0 0 0-.465.735c-.051.299.016.6.191.848.148.21.356.36.602.434a.938.938 0 0 1-.269 1.836M31.142 47.67a.936.936 0 0 1-.541-1.705l2.677-1.886a.937.937 0 1 1 1.08 1.533l-2.677 1.886a.933.933 0 0 1-.54.171"/>
        <path fill="#FEFEFE" d="M29.274 50.838a3.01 3.01 0 0 1-3.012-3.166.938.938 0 0 1 1.872.098 1.137 1.137 0 0 0 1.79.987c.428-.302.79-.852.4-1.405a.937.937 0 1 1 1.533-1.08c.932 1.322.573 3.012-.853 4.017a2.996 2.996 0 0 1-1.73.549M47.362 37.263c.25.688.09 1.377-.355 1.54-.446.162-1.01-.265-1.26-.952-.25-.688-.092-1.377.354-1.54.446-.162 1.01.265 1.26.952M44.014 34.707c.422.598.449 1.305.06 1.578-.387.273-1.043.01-1.465-.588-.422-.598-.449-1.305-.06-1.578.387-.274 1.043-.01 1.465.588M46.05 34.631c.175.555.024 1.097-.336 1.21-.36.113-.793-.245-.968-.8-.174-.556-.023-1.098.337-1.21.36-.114.793.245.967.8"/>
        <path fill="#97979F" d="M49.62 27.267c-.4 0-.772-.26-.896-.663a18.344 18.344 0 0 0-4.555-7.555 18.108 18.108 0 0 0-7.328-4.484.938.938 0 0 1 .573-1.785 19.968 19.968 0 0 1 8.081 4.943 20.227 20.227 0 0 1 5.021 8.33.938.938 0 0 1-.896 1.214"/>
    </g>
</svg>
