<?xml version="1.0" encoding="UTF-8"?>
<svg width="51px" height="52px" viewBox="0 0 51 52" version="1.1" xmlns="http://www.w3.org/2000/svg" xmlns:xlink="http://www.w3.org/1999/xlink">
    <!-- Generator: Sketch 43.1 (39012) - http://www.bohemiancoding.com/sketch -->
    <title>icon</title>
    <desc>Created with Sketch.</desc>
    <defs></defs>
    <g id="Login-/-Register" stroke="none" stroke-width="1" fill="none" fill-rule="evenodd">
        <g id="Registration---Welcome" transform="translate(-225.000000, -229.000000)" fill="#1A1918">
            <g id="lightbox">
                <path d="M254.091354,258.769362 C253.358538,258.558642 252.476148,258.497025 251.487458,258.54312 C251.342588,258.549235 251.330829,258.68846 251.14786,258.656476 C249.52607,258.996074 248.423082,259.854946 247.073158,260.46688 C246.296128,260.225587 245.930661,259.571791 245.262284,259.222315 C244.171056,258.916583 243.184247,258.507373 241.639595,258.656476 C241.42276,258.854496 241.049767,258.896358 240.734157,258.996074 C240.290611,259.344138 239.953835,259.800855 239.602479,260.240638 C239.527221,260.543078 239.554502,260.947585 239.376237,261.146546 C239.292984,262.323379 239.533806,263.177077 239.715364,264.089099 C240.178666,264.908461 240.663604,265.707127 241.187111,266.466753 C242.096311,267.330799 243.106638,268.093718 244.130135,268.843937 C244.597669,269.243741 244.982892,269.726327 245.601411,269.975146 C245.775443,270.254067 246.134796,270.397997 246.393492,270.541456 C246.436765,270.565444 246.461224,270.733832 246.507319,270.768168 C246.773541,270.968069 247.033178,270.835899 247.412285,270.881053 C248.506806,270.730069 248.64415,269.622378 249.563228,269.296421 C249.769714,268.899439 250.296985,268.822301 250.468665,268.390984 C250.890575,268.171327 251.110702,267.749887 251.600814,267.598432 C252.690631,266.197709 254.334529,265.352007 255.335919,263.863328 C255.592263,262.911795 256.052743,262.164398 255.902228,260.806948 C255.491607,259.934436 254.879202,259.263707 254.091354,258.769362 Z M272.767818,262.844534 C272.518058,264.406119 271.607447,265.305912 270.730702,266.239571 C270.132408,266.434299 269.815387,266.909359 269.145599,267.032593 C268.721337,267.321392 267.666796,267.338795 267.108012,267.145478 C267.681377,264.963963 268.380798,262.909914 268.579759,260.353994 C270.031751,260.373279 271.665771,260.211476 272.42822,260.920304 C272.7443,261.359147 272.817205,262.040694 272.767818,262.844534 Z M263.825391,267.485546 C262.999444,269.299713 261.922797,270.865061 260.656126,272.239444 C260.075235,272.979316 259.344301,273.568673 258.61854,274.164145 C257.9464,274.812297 257.0372,275.224329 256.354712,275.861663 C254.979858,276.14717 254.001986,276.828717 252.732963,277.219583 C251.500158,277.554007 250.203384,277.205943 249.110274,277.559652 L244.922216,277.559652 C244.25619,277.432655 243.510675,277.38609 242.884629,277.219583 C242.50317,277.186188 242.111833,277.163141 241.865836,276.993812 C241.498017,276.983935 241.169708,276.935018 240.960399,276.76663 C239.593071,276.587424 238.573808,276.060154 237.33818,275.747837 C237.161326,275.359322 236.460494,275.493844 236.319387,275.069112 C235.79588,275.026779 235.67782,274.579 235.187708,274.503272 C234.447366,273.847124 233.789807,273.108664 233.036766,272.465686 C232.80535,271.942649 232.44882,271.545197 232.131329,271.107765 C231.862755,270.659515 231.628047,270.176929 231.339248,269.748904 C230.906049,268.748455 230.227794,267.993062 229.754615,267.032593 C229.772959,266.901363 229.729216,266.83128 229.640789,266.806351 C229.005337,264.763591 228.551442,262.538332 228.50911,259.901511 C228.498762,257.21154 228.485122,254.519687 229.188776,252.544188 C229.183602,252.3504 229.272499,252.250214 229.415017,252.20459 C235.607737,252.425658 241.998477,252.449175 248.431549,252.430361 C249.39437,252.61333 251.505802,252.488215 252.846319,252.656603 C254.411197,252.676358 255.925276,252.746441 257.373505,252.883315 C260.412481,253.013133 263.352212,253.243608 265.976334,253.789222 C266.172002,259.26747 265.651787,264.029364 263.825391,267.485546 Z M274.91829,257.410971 C274.521308,256.941084 274.055655,256.537988 273.673255,256.05258 C273.295088,255.978264 273.119645,255.700753 272.767818,255.599626 C272.498773,255.378558 272.00631,255.38091 271.749024,255.147143 C271.156375,255.136795 270.730231,254.95853 270.051036,255.033787 C269.680865,254.699833 268.833752,255.139147 268.579759,254.920901 C268.513909,253.402119 268.340818,251.990107 267.787678,250.959085 C264.353132,250.205573 260.218224,250.151952 256.354712,249.826935 C252.305879,249.650552 248.184141,249.545662 244.016779,249.487808 C243.872379,249.494393 243.86015,249.632678 243.677181,249.600694 C240.677715,249.619978 237.570537,249.531081 234.734755,249.71405 C231.842059,249.839635 229.006277,250.022604 226.698236,250.732843 C226.115463,251.28222 225.976238,252.274203 225.679443,253.109557 C225.477659,254.077551 225.353956,255.124095 225.226489,256.165936 C224.995544,258.232684 224.912761,260.675248 225.113603,262.844534 C225.647458,266.950751 226.845928,270.393763 228.848708,273.031525 C229.795536,274.386624 231.041041,275.443045 232.358041,276.427973 C233.104497,276.849883 233.721135,277.403493 234.621869,277.672537 C235.272373,278.191341 236.226256,278.407705 236.998583,278.804686 C240.472639,279.971172 244.24208,280.843213 248.997388,280.728917 C250.755112,280.524311 252.456393,280.264204 254.203769,280.049721 C254.216469,279.918492 254.314774,279.971172 254.430481,279.936836 C255.650117,279.570428 256.703246,278.870066 257.826459,278.351733 C258.9746,277.349402 260.208346,276.432676 261.335322,275.40918 C262.483463,274.406379 263.413829,273.185802 264.504587,272.126558 C264.735062,271.790253 264.855003,271.343884 265.183782,271.107765 C265.382273,270.702318 265.524791,270.240427 265.862978,269.975146 C266.68328,270.248893 267.639986,270.387178 268.806471,270.314743 C269.440042,270.194332 269.968723,269.968561 270.617346,269.86273 C271.763135,269.197175 272.927739,268.550905 273.673255,267.485546 C274.627609,266.629026 275.20944,265.399043 275.823727,264.202925 C276.296435,261.820097 275.758817,259.157877 274.91829,257.410971 Z M255.902228,242.80921 C256.02264,243.593765 256.186794,244.335518 256.12847,245.29975 C256.004766,245.552802 255.941268,245.86653 255.788872,246.091361 C255.723022,246.379689 255.335448,246.64356 255.562631,246.884382 C256.144933,247.183059 256.653388,246.786078 257.147263,246.65767 C257.865969,245.942728 258.370191,245.013302 258.505654,243.714647 C258.449682,243.317666 258.336796,242.977597 258.392298,242.469612 C258.217325,242.305457 258.154768,242.027947 258.166056,241.677061 C257.646312,240.6879 256.969468,239.854898 256.354712,238.960279 C256.108245,238.641377 256.041454,238.142328 255.902228,237.715244 L255.675987,237.715244 C254.779486,237.988992 254.453529,238.832342 254.543837,240.092898 C254.891902,241.102284 255.491136,241.86144 255.902228,242.80921 Z M239.149525,241.790417 C239.362597,242.067927 239.61753,242.303106 239.715364,242.695854 C240.665015,243.633275 241.750599,244.433352 242.432616,245.638877 L242.432616,247.22398 C243.018211,247.206577 243.338054,246.922481 243.677181,246.65767 C243.856857,246.045266 243.951399,245.347256 243.903423,244.506728 C243.61039,242.686917 242.18756,241.996903 241.413353,240.658267 C241.287297,239.612664 241.287297,238.647962 241.413353,237.602358 C241.611373,237.347895 241.682397,236.965495 241.865836,236.696451 C241.925101,236.529004 242.033283,236.411414 242.092548,236.243967 C242.210138,236.197402 242.49,235.805124 242.092548,235.90437 C242.073734,235.772199 241.913813,235.781607 241.752951,235.791484 C241.600085,235.82629 241.537057,235.952346 241.299997,235.90437 C239.915736,237.106602 238.771358,238.953223 239.036169,241.450819 C239.168339,241.469633 239.159402,241.630025 239.149525,241.790417 Z M246.167721,239.979072 C246.361508,240.426852 246.580694,240.848762 246.73309,241.337463 C247.100909,241.611211 247.161115,242.192572 247.412285,242.582498 C247.548689,243.088602 247.702966,243.575421 247.638527,244.280957 C247.469199,245.519406 246.209583,246.717876 247.186044,247.79029 C247.517645,247.760187 247.533638,248.045694 247.865239,248.016061 C248.948471,247.929045 249.206227,247.017493 249.78994,246.431429 C249.892007,246.005285 250.033114,245.618652 250.242423,245.29975 C250.357661,244.50908 250.378827,243.623868 250.355309,242.695854 C249.836975,240.686018 248.616399,239.378896 248.204837,237.262761 L248.204837,234.319737 C248.407561,233.013086 248.956467,232.052617 249.110274,230.697518 C249.429176,230.18577 249.772537,229.699891 249.902825,229 L248.884032,229 C248.731166,229.034806 248.667668,229.160392 248.431549,229.112886 C248.117821,229.477883 247.65546,229.695188 247.412285,230.131679 C246.994138,230.391786 246.894422,230.972207 246.507319,231.263358 C246.281077,232.094008 245.857756,232.727108 245.714297,233.641012 C245.439608,234.421805 245.514865,235.553954 245.374699,236.470209 C245.464067,237.173863 245.531798,237.898213 245.601411,238.621151 C245.877981,238.985678 245.898206,239.60702 246.167721,239.979072 L246.167721,239.979072 Z" id="icon"></path>
            </g>
        </g>
    </g>
</svg>