<svg xmlns="http://www.w3.org/2000/svg" width="60" height="60" viewBox="0 0 60 60">
    <g fill="none" fill-rule="evenodd">
        <path fill="#FEFEFE" d="M30 0C13.431 0 0 13.431 0 30c0 16.569 13.431 30 30 30 16.569 0 30-13.431 30-30C60 13.431 46.569 0 30 0m0 1.875a28.035 28.035 0 0 1 19.887 8.238A28.035 28.035 0 0 1 58.125 30a28.035 28.035 0 0 1-8.238 19.887A28.035 28.035 0 0 1 30 58.125a28.035 28.035 0 0 1-19.887-8.238A28.035 28.035 0 0 1 1.875 30a28.035 28.035 0 0 1 8.238-19.887A28.035 28.035 0 0 1 30 1.875"/>
        <path fill="#FEFEFE" d="M22.099 45.46c-.393 0-.784-.033-1.174-.102a.938.938 0 0 1 .324-1.846c3.806.667 6.63-3.358 6.657-3.399l.034-.048.039-.044 8.197-9.179a.937.937 0 1 1 1.398 1.25l-8.162 9.139c-.182.253-.999 1.338-2.288 2.341-1.603 1.247-3.32 1.889-5.025 1.889"/>
        <path fill="#FEFEFE" d="M37.63 30.624c1.261.128 2.33-.048 2.585-.331.254-.284.315-1.364.055-2.604-1.26-.126-2.328.049-2.583.332-.257.285-.318 1.366-.056 2.603zm3.282.295h.001-.001zm-2.428 1.623c-.817 0-1.516-.107-1.77-.152l-.578-.1-.162-.564c-.167-.583-.939-3.56.318-4.958 1.257-1.399 4.299-.949 4.896-.844l.578.1.161.564c.168.583.939 3.56-.318 4.958-.72.802-2.028.996-3.125.996z"/>
        <path fill="#FEFEFE" d="M36.423 34.435c.801.982 1.678 1.616 2.062 1.593.383-.02 1.19-.741 1.88-1.801-.789-.966-1.653-1.593-2.043-1.593h-.018c-.384.02-1.191.741-1.881 1.801m2.05 3.468c-1.838 0-3.606-2.382-3.947-2.868l-.337-.48.284-.513c.293-.53 1.853-3.18 3.73-3.28 1.876-.1 3.71 2.369 4.06 2.865l.336.48-.284.513c-.293.53-1.853 3.18-3.73 3.28a2.225 2.225 0 0 1-.112.003"/>
        <path fill="#FEFEFE" d="M33.178 38.046c.801.981 1.68 1.616 2.062 1.592.383-.02 1.19-.74 1.88-1.8-.801-.982-1.686-1.614-2.061-1.593-.384.02-1.191.74-1.881 1.8m2.05 3.469c-1.838 0-3.606-2.382-3.947-2.868l-.337-.48.284-.513c.293-.53 1.853-3.18 3.73-3.28 1.873-.1 3.71 2.368 4.06 2.864l.336.48-.284.513c-.293.53-1.853 3.18-3.73 3.28a2.225 2.225 0 0 1-.112.004"/>
        <path fill="#FEFEFE" d="M33.757 28.287c-.981.8-1.613 1.68-1.592 2.061.02.38.74 1.188 1.802 1.88.98-.8 1.612-1.68 1.591-2.06-.02-.384-.74-1.192-1.8-1.881zm.329 6.176l-.513-.284c-.53-.294-3.18-1.853-3.28-3.73-.1-1.879 2.368-3.711 2.864-4.06l.48-.337.513.284c.53.294 3.18 1.854 3.28 3.731.1 1.878-2.368 3.71-2.864 4.059l-.48.337z"/>
        <path fill="#FEFEFE" d="M28.92 33.959c.02.383.74 1.19 1.801 1.88.981-.8 1.613-1.68 1.593-2.061-.02-.38-.742-1.188-1.802-1.88-.981.801-1.612 1.68-1.592 2.06zm1.921 4.115l-.513-.284c-.53-.294-3.18-1.854-3.28-3.731-.1-1.878 2.368-3.71 2.864-4.059l.48-.337.513.284c.53.294 3.18 1.853 3.28 3.73.101 1.879-2.368 3.711-2.864 4.06l-.48.337z"/>
        <path fill="#FEFEFE" d="M29.966 41.62c.802.981 1.684 1.613 2.062 1.592.383-.02 1.19-.74 1.88-1.801-.8-.982-1.681-1.612-2.061-1.593-.383.02-1.19.741-1.88 1.801m2.05 3.468c-1.839 0-3.606-2.381-3.948-2.868l-.337-.48.284-.512c.294-.53 1.853-3.18 3.731-3.281 1.876-.098 3.71 2.369 4.059 2.865l.337.48-.284.513c-.294.53-1.853 3.18-3.731 3.28a2.216 2.216 0 0 1-.112.003"/>
        <path fill="#FEFEFE" d="M27.3 35.472c-.981.8-1.612 1.68-1.592 2.06.02.381.741 1.188 1.802 1.88.981-.8 1.612-1.68 1.592-2.06-.02-.381-.741-1.188-1.802-1.88zm.33 6.175l-.513-.284c-.53-.293-3.18-1.853-3.281-3.73-.1-1.878 2.369-3.711 2.865-4.06l.48-.336.513.284c.53.293 3.18 1.853 3.28 3.73.1 1.878-2.369 3.71-2.865 4.06l-.48.336z"/>
        <path fill="#97979F" d="M20.68 37.899c-.215-2.183 3.884-12.117 3.884-12.117s10.417-4.34 12.38-4.148c-.334-3.403-8.733-5.429-15.17 1.007C15.34 29.077 17.03 37.54 20.68 37.9"/>
        <path fill="#FEFEFE" d="M12.926 23.157l9.416 4.572c.37-.56 1.004-1.36 2.082-2.438 1.072-1.072 1.869-1.704 2.43-2.077l-4.686-9.345c-.378-.064-1.937-.018-5.56 3.605-3.603 3.603-3.735 5.245-3.682 5.683zm9.877 6.768c-.16 0-.322-.044-.473-.117l-10.524-5.11a.936.936 0 0 1-.253-.18c-.131-.132-.767-.863-.405-2.383.385-1.614 1.775-3.629 4.134-5.987 2.823-2.823 5.12-4.226 6.824-4.169.913.03 1.361.464 1.477.596.052.06.097.126.133.197l5.22 10.414c.134.266.176.571.04.837-.132.259-.336.433-.619.486-.141.062-.965.465-2.607 2.107-1.642 1.643-2.046 2.466-2.107 2.607-.053.281-.225.484-.481.617a.771.771 0 0 1-.36.085z"/>
        <path fill="#FEFEFE" d="M24.169 13.535l4.484 8.855 1.702-.578-.456-8.21c-.663-.181-1.768-.443-2.788-.493-.895-.044-2.092.207-2.942.426m4.015 10.941a.938.938 0 0 1-.837-.514l-5.363-10.591a.938.938 0 0 1 .542-1.314c.113-.037 2.786-.913 4.677-.82 1.845.09 3.808.737 3.891.764a.938.938 0 0 1 .64.838l.533 9.58a.938.938 0 0 1-.635.94l-3.147 1.068a.94.94 0 0 1-.301.05"/>
        <path fill="#FEFEFE" d="M31.94 14.206c.044 1.909.156 5.246.218 7.046.878-.225 2.197-.473 3.909-.539-.068-1.446-.898-3.393-2.128-4.866-.658-.787-1.35-1.35-1.999-1.641m-.675 9.25a.938.938 0 0 1-.938-.904c-.012-.322-.28-7.897-.28-9.507 0-.516.416-.935.931-.938h.02c1.457 0 3.012.9 4.38 2.538 1.505 1.802 2.926 4.811 2.488 7.161a.937.937 0 0 1-.922.766c-3.378 0-5.29.8-5.309.808a.94.94 0 0 1-.37.075M12.647 30.853l8.21.457.578-1.703-8.854-4.484c-.22.85-.47 2.047-.426 2.942.05 1.024.311 2.127.492 2.788m8.87 2.37c-.018 0-.035 0-.053-.002l-9.58-.533a.938.938 0 0 1-.837-.64c-.027-.082-.675-2.046-.765-3.891-.092-1.891.783-4.564.82-4.677a.938.938 0 0 1 1.314-.542l10.592 5.363c.416.211.614.696.464 1.138l-1.068 3.147a.938.938 0 0 1-.887.637"/>
        <path fill="#FEFEFE" d="M13.252 32.894c.29.649.854 1.341 1.64 2 1.473 1.23 3.42 2.06 4.867 2.127.066-1.711.313-3.03.539-3.91-1.8-.061-5.138-.173-7.046-.217m6.689 6.007c-2.175 0-4.675-1.252-6.25-2.57-1.645-1.373-2.547-2.936-2.538-4.398A.937.937 0 0 1 12.09 31c1.61 0 9.186.269 9.508.28a.938.938 0 0 1 .827 1.309c-.01.022-.808 1.933-.808 5.309a.937.937 0 0 1-.765.921c-.295.055-.6.081-.911.081M15.6 23.092a.938.938 0 0 1-.866-1.296c.032-.077.795-1.89 2.495-3.59 1.698-1.699 3.53-2.482 3.606-2.515a.937.937 0 1 1 .73 1.728c-.015.006-1.582.685-3.01 2.113-1.44 1.44-2.082 2.966-2.088 2.98a.938.938 0 0 1-.867.58"/>
        <path fill="#97979F" d="M29.289 50.977a.938.938 0 0 1 0-1.875c10.096 0 18.31-8.214 18.31-18.311a18.325 18.325 0 0 0-6.21-13.743.937.937 0 1 1 1.24-1.407 20.2 20.2 0 0 1 6.845 15.15c0 11.13-9.055 20.186-20.185 20.186"/>
    </g>
</svg>
