<svg xmlns="http://www.w3.org/2000/svg" width="61" height="60" viewBox="0 0 61 60">
    <g fill="none" fill-rule="evenodd">
        <path fill="#000" d="M30.333 0c-16.568 0-30 13.431-30 30 0 16.569 13.432 30 30 30 16.569 0 30-13.431 30-30 0-16.569-13.431-30-30-30m0 1.875a28.035 28.035 0 0 1 19.887 8.238A28.035 28.035 0 0 1 58.459 30a28.035 28.035 0 0 1-8.238 19.887 28.033 28.033 0 0 1-19.887 8.238 28.033 28.033 0 0 1-19.887-8.238A28.035 28.035 0 0 1 2.208 30a28.035 28.035 0 0 1 8.238-19.887 28.035 28.035 0 0 1 19.887-8.238"/>
        <path fill="#221F20" d="M22.432 45.46c-.392 0-.784-.033-1.174-.101a.938.938 0 0 1 .324-1.847c3.805.666 6.63-3.358 6.658-3.399l.033-.048 8.236-9.223a.937.937 0 1 1 1.399 1.25l-8.163 9.139c-.182.253-.999 1.338-2.288 2.341-1.603 1.247-3.32 1.889-5.025 1.889"/>
        <path fill="#221F20" d="M37.964 30.624c1.261.128 2.329-.048 2.584-.331.256-.286.318-1.366.056-2.604-1.26-.127-2.329.048-2.584.332-.256.286-.318 1.366-.056 2.603zm3.281.295h.001zm-2.428 1.623a10.78 10.78 0 0 1-1.77-.152l-.578-.1-.162-.565c-.167-.582-.938-3.559.319-4.957 1.256-1.399 4.298-.949 4.895-.844l.578.1.162.564c.167.583.938 3.56-.319 4.958-.72.802-2.028.996-3.125.996z"/>
        <path fill="#221F20" d="M36.756 34.435c.789.966 1.653 1.593 2.044 1.593h.018c.383-.02 1.19-.741 1.88-1.801-.788-.966-1.653-1.593-2.043-1.593h-.018c-.383.02-1.191.741-1.88 1.801m2.049 3.468c-1.838 0-3.605-2.382-3.947-2.868l-.337-.48.284-.513c.294-.53 1.853-3.18 3.73-3.28.038-.002.075-.003.113-.003 1.838 0 3.605 2.381 3.947 2.868l.337.48-.284.512c-.294.53-1.854 3.18-3.731 3.28a1.978 1.978 0 0 1-.112.004"/>
        <path fill="#221F20" d="M33.511 38.046c.802.981 1.68 1.608 2.062 1.592.383-.02 1.19-.74 1.88-1.8-.788-.967-1.653-1.594-2.043-1.594h-.018c-.383.021-1.19.742-1.88 1.802m2.05 3.468c-1.839 0-3.606-2.382-3.948-2.868l-.337-.48.284-.513c.294-.53 1.853-3.18 3.731-3.28.037-.003.075-.004.112-.004 1.838 0 3.605 2.382 3.947 2.868l.337.48-.284.513c-.294.53-1.853 3.18-3.731 3.28a1.978 1.978 0 0 1-.112.004"/>
        <path fill="#221F20" d="M32.498 30.348c.02.38.741 1.188 1.802 1.88.981-.8 1.612-1.68 1.592-2.06-.02-.384-.741-1.192-1.801-1.881-.982.8-1.613 1.68-1.593 2.061zm1.921 4.115l-.513-.284c-.53-.294-3.18-1.853-3.28-3.73-.1-1.878 2.369-3.711 2.865-4.06l.48-.337.512.284c.53.294 3.18 1.854 3.281 3.731.1 1.878-2.369 3.71-2.865 4.059l-.48.337z"/>
        <path fill="#221F20" d="M29.253 33.959c.02.38.741 1.187 1.802 1.88.981-.801 1.612-1.68 1.592-2.061-.02-.383-.741-1.19-1.801-1.88-.982.8-1.613 1.68-1.593 2.061zm1.922 4.115l-.514-.284c-.53-.294-3.18-1.854-3.28-3.731-.1-1.878 2.369-3.71 2.865-4.059l.48-.337.513.284c.53.294 3.18 1.853 3.28 3.731.1 1.878-2.369 3.71-2.865 4.059l-.48.337z"/>
        <path fill="#221F20" d="M30.3 41.62c.801.981 1.684 1.609 2.061 1.592.381-.02 1.188-.741 1.88-1.802-.788-.965-1.652-1.592-2.042-1.592h-.019c-.383.02-1.19.741-1.88 1.802m2.05 3.467c-1.839 0-3.606-2.381-3.947-2.868l-.337-.48.284-.513c.293-.53 1.853-3.18 3.73-3.28 1.876-.104 3.71 2.369 4.06 2.865l.336.48-.284.513c-.293.53-1.853 3.18-3.73 3.28a1.97 1.97 0 0 1-.112.003"/>
        <path fill="#221F20" d="M26.042 37.532c.02.381.74 1.188 1.802 1.88.98-.8 1.612-1.68 1.591-2.06-.02-.381-.74-1.188-1.802-1.88-.98.8-1.612 1.68-1.591 2.06zm1.921 4.115l-.513-.284c-.53-.293-3.18-1.853-3.28-3.73-.1-1.878 2.368-3.71 2.864-4.06l.48-.336.513.284c.53.293 3.18 1.853 3.28 3.73.1 1.878-2.368 3.71-2.864 4.06l-.48.336z"/>
        <path fill="#97979F" d="M21.013 37.899c-.215-2.183 3.885-12.117 3.885-12.117s10.417-4.34 12.38-4.148c-.335-3.403-8.734-5.429-15.17 1.007S17.362 37.54 21.013 37.9"/>
        <path fill="#221F20" d="M13.259 23.157l9.416 4.572c.371-.56 1.004-1.36 2.083-2.438 1.072-1.072 1.868-1.704 2.428-2.077l-4.685-9.345c-.377-.064-1.937-.018-5.56 3.605-3.603 3.603-3.735 5.245-3.682 5.683zm9.877 6.768c-.16 0-.322-.044-.473-.117l-10.523-5.11a.936.936 0 0 1-.254-.18c-.131-.132-.766-.863-.404-2.383.384-1.614 1.775-3.629 4.133-5.987 2.823-2.823 5.12-4.225 6.825-4.169.913.03 1.36.464 1.476.596.053.06.097.126.133.197l5.22 10.414c.134.266.176.571.04.837-.132.259-.336.433-.619.486-.141.062-.965.465-2.607 2.107-1.642 1.643-2.045 2.466-2.107 2.607-.053.281-.224.484-.48.617a.771.771 0 0 1-.36.085z"/>
        <path fill="#221F20" d="M24.502 13.535l4.484 8.855 1.703-.578-.457-8.21c-.662-.181-1.768-.443-2.788-.493-.894-.043-2.092.207-2.942.426m4.015 10.941a.938.938 0 0 1-.837-.514l-5.363-10.591a.938.938 0 0 1 .542-1.314c.113-.037 2.786-.913 4.677-.82 1.845.09 3.809.737 3.891.764a.938.938 0 0 1 .64.838l.533 9.58a.938.938 0 0 1-.634.94l-3.148 1.068a.94.94 0 0 1-.3.05"/>
        <path fill="#221F20" d="M32.273 14.206c.044 1.909.156 5.246.218 7.046.879-.225 2.198-.473 3.91-.539-.068-1.446-.898-3.393-2.129-4.866-.657-.787-1.35-1.35-1.999-1.641m-.674 9.25a.938.938 0 0 1-.939-.904c-.011-.322-.28-7.897-.28-9.507 0-.516.416-.935.932-.938h.02c1.457 0 3.01.9 4.379 2.538 1.506 1.802 2.927 4.811 2.488 7.161a.937.937 0 0 1-.921.766c-3.379 0-5.29.8-5.31.808a.94.94 0 0 1-.37.075M12.98 30.853l8.21.456.579-1.702-8.855-4.484c-.22.85-.47 2.047-.426 2.942.05 1.024.311 2.127.493 2.788m8.87 2.37c-.018 0-.036 0-.053-.002l-9.58-.533a.937.937 0 0 1-.838-.64c-.027-.082-.674-2.046-.765-3.891-.092-1.89.784-4.564.82-4.677a.938.938 0 0 1 1.315-.542l10.591 5.364c.417.21.614.695.465 1.137l-1.068 3.147a.938.938 0 0 1-.888.637"/>
        <path fill="#221F20" d="M13.585 32.894c.29.649.854 1.341 1.64 2 1.473 1.23 3.42 2.06 4.867 2.127.066-1.711.314-3.03.54-3.91-1.8-.061-5.138-.173-7.047-.217m6.69 6.007c-2.175 0-4.675-1.252-6.251-2.57-1.645-1.373-2.546-2.936-2.538-4.398a.937.937 0 0 1 .938-.932c1.61 0 9.186.269 9.507.28a.938.938 0 0 1 .828 1.309c-.01.022-.808 1.933-.808 5.309a.937.937 0 0 1-.766.921c-.294.055-.6.081-.91.081M15.934 23.092a.938.938 0 0 1-.866-1.296c.032-.077.794-1.89 2.494-3.59 1.699-1.699 3.53-2.482 3.607-2.515a.937.937 0 1 1 .729 1.728c-.014.006-1.582.685-3.01 2.113-1.44 1.44-2.081 2.966-2.088 2.98a.938.938 0 0 1-.866.58"/>
        <path fill="#97979F" d="M29.622 50.977a.938.938 0 0 1 0-1.875c10.096 0 18.31-8.215 18.31-18.311a18.325 18.325 0 0 0-6.21-13.743.937.937 0 1 1 1.24-1.407 20.2 20.2 0 0 1 6.846 15.15c0 11.13-9.056 20.186-20.186 20.186"/>
    </g>
</svg>
