<svg xmlns="http://www.w3.org/2000/svg" xmlns:xlink="http://www.w3.org/1999/xlink" width="60" height="60" viewBox="0 0 60 60">
    <defs>
        <path id="a" d="M0 30V0h60v60H0V30z"/>
        <path id="c" d="M0 60h60V0H0z"/>
    </defs>
    <g fill="none" fill-rule="evenodd">
        <mask id="b" fill="#fff">
            <use xlink:href="#a"/>
        </mask>
        <path fill="#000" d="M30 0C13.431 0 0 13.431 0 30c0 16.569 13.431 30 30 30 16.569 0 30-13.431 30-30C60 13.431 46.569 0 30 0m0 1.875a28.033 28.033 0 0 1 19.887 8.238A28.034 28.034 0 0 1 58.125 30a28.035 28.035 0 0 1-8.238 19.887A28.033 28.033 0 0 1 30 58.125a28.033 28.033 0 0 1-19.887-8.238A28.033 28.033 0 0 1 1.875 30a28.032 28.032 0 0 1 8.238-19.887A28.033 28.033 0 0 1 30 1.875" mask="url(#b)"/>
        <path fill="#221F20" d="M12.416 36.727V22.822h2.367v8.112l3.54-3.999h3.264L16.92 31.67l4.973 5.058h-3.13l-3.98-4.237v4.237zM27.495 36.947c-.795 0-1.522-.14-2.18-.42-.66-.28-1.199-.659-1.619-1.136a5.211 5.211 0 0 1-.973-1.637 5.483 5.483 0 0 1-.343-1.932c0-.967.198-1.837.596-2.61a4.47 4.47 0 0 1 1.765-1.842c.78-.455 1.688-.683 2.725-.683 1.54 0 2.723.44 3.55 1.317l-.849 1.527a3.594 3.594 0 0 0-2.453-.935c-.929 0-1.641.293-2.137.878-.497.585-.745 1.371-.745 2.357 0 .961.264 1.736.792 2.324.528.589 1.25.883 2.167.883a4.091 4.091 0 0 0 .725-.067c.102-.019.208-.046.32-.081.111-.035.205-.067.281-.095a2.19 2.19 0 0 0 .258-.12l.224-.119c.054-.029.123-.072.205-.129l.167-.114a4.464 4.464 0 0 0 .272-.2l.716 1.736a6.154 6.154 0 0 1-1.641.835 5.964 5.964 0 0 1-1.823.263M37.716 35.038c.916 0 1.583-.291 2-.873.416-.582.624-1.36.624-2.334 0-.999-.22-1.786-.663-2.362-.442-.576-1.112-.864-2.009-.864-.878 0-1.55.29-2.018.869-.468.579-.702 1.358-.702 2.338s.234 1.763.702 2.348c.467.585 1.156.878 2.066.878m-.296 1.909c-.795 0-1.508-.144-2.138-.43-.63-.286-1.135-.668-1.517-1.145a5.177 5.177 0 0 1-.868-1.594 5.725 5.725 0 0 1-.296-1.842c0-.68.101-1.328.305-1.942.204-.614.501-1.17.892-1.67.392-.5.909-.897 1.551-1.193.643-.296 1.371-.444 2.186-.444 1.183 0 2.093.43 2.73 1.289v-1.04h2.318v9.791h-2.376v-1.336c-.713 1.037-1.642 1.556-2.787 1.556"/>
        <mask id="d" fill="#fff">
            <use xlink:href="#c"/>
        </mask>
        <path fill="#221F20" d="M45.246 36.727h2.338V22.822h-2.338z" mask="url(#d)"/>
        <path fill="#97979F" d="M47.3 20.306a.937.937 0 0 1-.801-.45 19.434 19.434 0 0 0-6.9-6.724A19.3 19.3 0 0 0 30 10.58a19.288 19.288 0 0 0-16.057 8.585.938.938 0 0 1-1.559-1.043A21.16 21.16 0 0 1 30 8.705c3.7 0 7.342.968 10.532 2.8a21.314 21.314 0 0 1 7.568 7.376.937.937 0 0 1-.8 1.425M30 51.064a21.171 21.171 0 0 1-17.562-9.337.937.937 0 1 1 1.554-1.05A19.298 19.298 0 0 0 30 49.189a19.298 19.298 0 0 0 16.008-8.512.937.937 0 1 1 1.554 1.05A21.171 21.171 0 0 1 30 51.064" mask="url(#d)"/>
    </g>
</svg>
