<svg xmlns="http://www.w3.org/2000/svg" xmlns:xlink="http://www.w3.org/1999/xlink" width="196" height="156" viewBox="0 0 196 156">
    <defs>
        <path id="a" d="M0 122.735V.139h146.648v122.596H0z"/>
    </defs>
    <g fill="none" fill-rule="evenodd">
        <g transform="translate(0 .14)">
            <mask id="b" fill="#fff">
                <use xlink:href="#a"/>
            </mask>
            <path fill="#221F20" d="M35.933 17.245c.04 1.592.296 2.965 1.634 3.258 2.089.144 1.798-2.717 1.225-4.073-1.266-.039-1.95.499-2.859.815m98.817 6.517c-1.459-.716-1.343-3.003-2.449-4.073-7.619-7.605-18.941-11.518-35.118-10.586-.52.02-.565.52-1.225.404-10.703.456-19.3 3.015-27.766 5.702-4.107 1.469-7.96 3.194-11.842 4.887-.78.582-1.772.948-2.858 1.225-.51.982-1.675 1.315-2.859 1.63-1.58 1.444-3.55 2.378-5.308 3.257-.771.993-.013 3.513-1.225 4.07-2.483 2.14-5.438 3.81-8.167 5.702-5.194 6.088-10.208 12.355-14.291 19.553-1.07 4.495-3.47 7.67-4.492 12.215-2.272 3.438-2.767 8.65-4.083 13.033-.598 4.428-.38 9.67-.409 14.662 1.307 4.943 3.362 9.138 4.9 13.851 1.89-.154 2.806-1.274 3.675-2.447 1.632-.407 2.346-1.733 3.675-2.44 2.364-1.854 4.614-3.819 7.35-5.295 1.882-2.2 4.967-3.196 6.942-5.298 2.881-1.334 4.815-3.613 7.758-4.884 1.998-2.082 4.773-3.39 6.942-5.295 2.46-1.757 5.138-3.295 7.35-5.298 1.352-.687 2.594-1.484 3.675-2.44 1.66-.518 2.368-1.986 4.083-2.444 1.973-2.243 5.377-3.054 7.35-5.298 2.914-1.166 5.147-3.01 7.759-4.476 2.827-1.393 5.282-3.151 8.166-4.484 5.304-2.99 10.49-6.1 15.927-8.96 2.288-1.787 5.258-2.9 7.348-4.884 3.064-1.155 4.804-3.63 7.76-4.89 1.916-2.298 4.776-3.653 6.532-6.107 1.253-.788 1.85-2.232 2.858-3.258 1.158-1.018 3.293-1.064 3.675-2.851a18.29 18.29 0 0 0-1.633-4.483M13.067 122.735c-1.421-.487-3.063-.748-3.266-2.447-.797-1.106-1.953-1.854-2.451-3.259-.7-2.966-1.962-5.374-2.858-8.145C2.396 103.508 1.016 97.418 0 90.964V77.522C3.492 54.669 15.293 40.1 28.992 27.427c-1.822-2.12-2.76-5.12-2.45-9.364.847-.108.112-1.792.816-2.037.121-.832 1.106-.8 1.225-1.629.47-1.433 2.316-1.492 2.859-2.854 2.727-1.082 5.02-2.595 9.391-2.036 1.132.772 2.775 1.034 3.267 2.443 1.15.62 1.048 2.485 2.042 3.259 3.665-1.504 6.51-3.826 10.616-4.888 3.24-1.927 7.122-3.214 11.027-4.477C75.548 3.27 83.689 1.071 93.508.55c.66.114.704-.386 1.225-.41h13.477c7.7.602 14.275 2.324 19.598 5.297 5.656 2.5 9.6 6.712 13.475 10.993.96 2.166 2.13 4.124 2.859 6.52 1.042 1.947 2.85 3.13 2.45 6.517-.4 4.35-4.036 5.474-6.534 7.735-2.664 2.093-4.676 4.838-7.35 6.924-4.719 4.659-10.839 7.924-16.332 11.81-11.792 7.112-24.516 13.29-35.934 20.772-2.906 1.856-6.114 3.407-8.575 5.706-1.884.562-3.174 1.718-4.492 2.847-1.452.859-3.043 1.582-4.083 2.851-3.092 1.452-5.622 3.713-8.575 5.702-2.79 1.836-5.655 3.593-8.167 5.705-3.112 1.646-5.647 3.87-8.575 5.7-2.633 2.125-5.758 3.76-8.167 6.108-5.836 3.547-10.11 8.651-16.741 11.408" mask="url(#b)"/>
        </g>
        <path fill="#221F20" d="M152.31 144.05H142.1c-2.62.646-6.414.12-8.984.814H127.4c-1.415-.326-1.568.61-2.858.41h-8.984c-1.94.235-3.765.585-6.125.405.322-1.582 2.654-1.152 3.677-2.034 15.115.005 28.564-1.65 43.282-2.036.66.11.703-.388 1.225-.41h2.043c-.564 2.83-3.695 3.103-7.35 2.85zm-90.242 0v-1.222c1.245-.274 4.872.185 7.349 0-1.729 1.076-5.49 1.544-7.349 1.221zm-10.618.407v-1.63c2.064-.211 4.72-.975 5.718.818-.838 1.201-4.191 1.603-5.718.812zm-5.717.817c-1.816-.32-2.448.541-4.082.405-1.43-.338-1.912-1.621-2.451-2.851h6.533v2.446zm140.059-11.81c-9.614.218-17.825-.96-27.359-.819-9.153.237-17.307 1.473-26.132 2.037l-43.693.814c-15.195-1.27-32.252-.685-48.59-.814-1.645.262-4.345-.53-5.308.41-3.435.237-7.852-.501-10.618.404H13.068c-1.212.694-3.363.448-4.901.815-1.45.455-2.76 1.05-2.859 2.851.41 1.225 1.225 2.036 2.452 2.447 1.173.456 3.183.08 4.082.811 3.467-.063 6.845-.037 9.8.408h6.534c3.52 2.733 5.181 7.32 8.167 10.589 1.813.635 3.458 1.437 5.308 2.04.317.09.806.01.816.404 14.33-.098 28.906.05 42.06-1.222 6.91.296 13.621-.46 20.008-.812 6.618-.371 12.872-.444 19.19-.817 13.414-.792 26.49-1.563 42.06-1.219 1.106-1.887 1.798-4.18 2.857-6.112.189-1.305 1.554-1.436 1.633-2.851 1.194-.303.79-2.198 2.451-2.037 4.683-.19 8.79.194 13.066.407 2.485-.304 3.704.652 6.125.41 2.739.421 2.698-1.926 4.083-2.853-1.29-3.873-6.03-4.303-10.208-5.292zM94.026 103.469c-.165.008-.329.063-.407-.008-.165-.228.368-.455.194-.686l-.266.003c.098-.192.234-.399.335-.61-.08-.36-.18-.713-.327-1.056-.094.022-.18.039-.222.011-.093-.137-.03-.355-.037-.57l-.062-.085a.713.713 0 0 0-.213.002 1.097 1.097 0 0 1 .015-.267c-.707-.927-1.553-1.776-2.461-2.602-.308-.139-.611-.269-.786-.43-.2-.26-.185-.691-.268-.99-.86.389-1.56-.08-2.375.434-.05-.177-.144-.44-.39-.339-.745.3-1.63.56-2.253.4-.176-.097.002-.481-.168-.458-.268.039-.397.457-.665.497.298 1.166 1.043 2.082 1.379 3.256.256.137.624.88.843 1.71.228.83.295 1.733.225 2.097l.015.066c-.031.402.044.873.398 1.222.218.151.48.335.734.51l.47-.194c-.028.172-.052.343.115.42.374.394.859.223 1.51.104.288-.096.71.083 1.002-.085l-.054.328c.266.03-.11-.41.32-.297-.106.12.042.274.02.408.365-.023.17-.455.52-.417.082.081-.51.351-.068.405.09.012.113-.124.124-.192.106.425.51.707 1.022.344-.022.14-.227.32-.176.47h.007c.02-.071.12-.19.132-.257l-.043.248.188-.028c.06-.057.108-.117.12-.182l-.028.167c.147-.029.289-.065.424-.109.3-.179.735-.353.753-.466.262-.904.425-1.844.404-2.774M107.567 103.634c-.139-.09-.327-.1-.315-.262.11-.464.77-.476.88-.941l-.209-.17c.284-.234.604-.464.907-.71.334-.6.645-1.209.932-1.83-.093-.037-.173-.078-.166-.154.09-.276.379-.558.619-.883l.055-.176c-.023-.069-.096-.13-.142-.167.106-.15.214-.273.32-.386.618-1.958 1.173-3.993 1.828-6.166.04-.521.08-1.043.222-1.48.266-.612.864-1.23 1.233-1.759-.847-.418-.4-1.987-1.372-2.232.247-.351.618-.878.41-1.047-.622-.51-1.225-1.28-1.022-2.5.142-.436.792-.835.74-1.055-.084-.345-.786.19-.87-.156-2.016 2.647-3.43 5.53-5.22 8.346-.253 1.183-4.194 7.756-5.4 9.322l-.087.158c-.618.88-1.255 2.02-1.438 2.978-.036.47-.034.97-.037 1.466.235-.083.464-.155.678-.205-.249.352-.495.703-.44.933-.148.99.528.802 1.26.844.37-.063.552.455 1.006.272l-.412.585c.21.171.356-.816.62-.417-.235.18-.262.528-.426.76.36.11.646-.763.922-.537-.012.174-.838.42-.492.704.069.057.232-.18.315-.295-.356.816-.256 1.452.582 1.03-.16.23-.531.462-.636.744.002.002.005.002.007.002.091-.116.305-.282.382-.393-.096.137-.191.274-.29.412.068.01.136.017.205.023a1.05 1.05 0 0 0 .294-.267l-.193.274c.167.008.337 0 .503-.018.454-.183 1.013-.28 1.137-.456 1.103-1.353 2.16-2.742 3.11-4.19"/>
    </g>
</svg>
