<svg xmlns="http://www.w3.org/2000/svg" xmlns:xlink="http://www.w3.org/1999/xlink" width="194" height="201" viewBox="0 0 194 201">
    <defs>
        <path id="a" d="M0 200.332h193.523V.001H0z"/>
    </defs>
    <g fill="none" fill-rule="evenodd">
        <mask id="b" fill="#fff">
            <use xlink:href="#a"/>
        </mask>
        <path fill="#221F20" d="M23.064 184.115c-.501 4.008 1.022 5.991 4.847 5.666 1.582-.845 2.37-2.484 2.022-5.264-1.35-2.047-5.338-2.785-6.869-.402zm139.359 2.831c-2.615-.08-3.988-1.4-3.637-4.449.53-.412 1.488-.399 2.02-.81 2.258-.117 2.492 3.54 1.617 5.259zm.805-8.901c-.474-.065-1.144.07-1.212-.403h-2.423c-.245.024-.478.06-.403.403-1.882-.129-2.249 1.255-3.636 1.617-.368 1.386-.996 2.51-1.211 4.05.3 2.802 1.75 4.451 3.233 6.069 2.092.462 3.657 1.457 6.462 1.212 1.296-.723 2.405-1.64 3.231-2.833.062-.476-.071-1.147.404-1.214.315-4.761-1.932-6.967-4.445-8.901zm20.196.404c-1.728-.11-1.996 1.24-4.04.811-.338-2.5 1.847-2.466 2.426-4.048 1.533-.212 2.24-1.26 4.04-1.212-.002 2.29-1.777 2.808-2.425 4.449zm4.849-8.089c-8.045-1.911-14.477 3.217-12.117 11.731 1.397 1.656 4.977 2.052 7.673 1.216.606-.745 1.687-1.014 2.02-2.025.987-.358.437-2.26 2.02-2.022 1.204-1.63 2.41-3.249 2.02-6.472-.74-.61-.951-1.747-1.616-2.428zm-178.135-2.025c-1.582-1.372-4.212.483-4.038 2.832.676 2.29 2.194 3.736 5.251 3.64a9.738 9.738 0 0 0 1.615-1.615c.38-2.27-1.031-2.745-1.213-4.453-.508-.205-1.225-.065-1.615-.404zm17.773-5.664c-2.683-.259-4.248.6-4.04 3.237.535 2.237 3.979 3.758 6.062 2.02.09-.314.008-.795.401-.806.09-2.381-1.273-3.31-2.423-4.451zm139.762-.404c-1.872.91-3.964-.945-3.232-2.43 1.608-1.106 3.927-.054 3.232 2.43zm.401-6.88h-4.036c-.249.025-.48.062-.405.404-1.567.049-2.04 1.194-2.827 2.024-.496 4.544 1.163 6.926 3.232 8.903 1.705.447 3.841.464 6.056.404 1.307-.984 2.499-2.084 2.83-4.045.025-4.209-2.294-6.062-4.85-7.69zm19.39-12.54c-.526 1.767-.72 2.033-.403 4.046 1.094.521 1.435 1.798 3.23 1.615 1.872-.418 3.12-1.461 3.232-3.64-.325-3.137-3.988-3.764-6.059-2.021zm-75.533 2.83c2.76 2.622 8.285.423 8.079-3.64-1.846-3.755-8.987-1.369-8.079 3.64zm-83.615-4.45c-.313-1.035-2.603-.092-2.425-1.616 1.689-.918 3.252.07 5.252 0-.052.721.495.85.405 1.616-.988.995-1.752-.3-3.232 0zm6.867-4.045c-4.582-4.703-14.314-2.973-14.947 3.64 2.128 3.813 8.413 6.83 14.138 4.45 1.07-1.62 1.886-3.506 1.615-6.475-.541-.264-.751-.864-.806-1.615zm36.353-4.45c-1.977-.306-2.74-.264-4.04.806-.511 3.888 1.979 4.766 3.232 6.88 1.437.048 1.468 1.497 3.232 1.215 1.041-.578 2.286-.952 2.423-2.427.02-3.798-3.288-4.257-4.847-6.474zm50.897-6.473c.625 3.269 6.322 2.104 5.653-1.62-1.153-2.797-5.712-1.368-5.653 1.62zm-51.705-11.738c-.678-2.288-2.575-3.348-4.442-4.449-2.07.086-3.147 1.166-3.232 3.237 1.064 2.172 2.75 3.717 5.656 4.044.828-.786 1.97-1.259 2.018-2.832zm23.025 3.24c-.428-2.952 3.37-3.508 5.251-2.832-.636 2.06-2.445 2.943-5.251 2.831zm3.635-9.306c-.52.557-1.755.402-2.829.404-1.011.736-2.503.998-3.231 2.023-1.31.44-1.523 1.98-2.422 2.831-.012 2.44-.127 4.98.403 6.878 1.47 1.496 3.247 2.685 6.06 2.834 6.07-.433 10.774-5.496 8.079-12.139-1.458-1.507-3.395-2.532-6.06-2.831zm-25.852-3.237c.487-2.51-.713-3.332-1.615-4.45-1.365-.657-1.805-2.241-4.04-2.023-1.813-.063-1.685 1.817-1.617 3.64.834 2.32 4.487 5.04 7.272 2.833zm42.01-6.069c.062-3.447-3.045-6.88-5.657-4.046-.154 3.255.729 5.474 3.637 5.664 1.002-.21 1.44-.985 2.02-1.618zm-18.582-4.452c.394 1.746-1.518 1.179-1.616 2.427-1.27-.202-1.579.882-2.424 0 .149-2.008 2.417-1.898 4.04-2.427zm4.444 5.26c.913-1.918 2.023-3.636 1.615-6.88-.542-.263-.75-.862-.807-1.615-2.92-3.514-9.536-2.276-12.523.404-1.295 1.94-2.444 4.025-2.02 7.687a10.301 10.301 0 0 0 4.04 4.047c4.975.533 7.267-1.626 9.695-3.643zm16.965-21.443c.081.233 1.705 1.646 1.617 1.616 1.138.359 2.251-.286 3.228-.805.488-2.514-.712-3.332-1.615-4.452-3.207-.666-3.885 1.758-3.23 3.64zm-29.084-1.216c.535-2.968 2.672-4.335 6.464-4.045-.165 3.229-3.462 4.949-6.463 4.045zm4.039 5.666c4.897-1.332 8.772-5.282 7.273-11.734-.712-1.04-1.758-1.746-2.425-2.831-.718-.224-1.677-.207-2.02-.81h-3.232c-5.066 1.666-9.458 4.01-8.885 11.33 1.914 2.531 4.517 4.376 9.289 4.045zm10.098-30.286a36 36 0 0 1-3.23-1.618c-3.435-.604-7.052-1.03-11.31-.81-5.508 1.496-11.46 2.55-12.118 8.902 4.841 1.435 8.537-1.668 12.925-2.022 4.142-.239 7.558.252 10.908.806.677.805 2.315.647 2.825 1.62 1.144-.336 1.049.569 2.022.405-.29 1.099 1.905-.29 1.615.808h.808c.927-.419 1.857-.834 2.424-1.617-.012-4.38-4.115-5.28-6.869-6.474zM75.574 41.696c1.285.06 1.779.915 3.234.807 6.938-1.713 6.763-17.079 1.211-20.229h-2.828c-.478.196-.916.433-1.212.81-1.038.038-.578 1.58-1.616 1.618-.155 1.058-.207 2.218-.807 2.833.102 5.29-.678 11.469 2.019 14.161zm27.469.404c3.963-1.424 4.38-6.404 5.251-10.924v-3.237c-.514-2.182-1.201-4.19-2.424-5.665-1.324-.021-1.544-1.15-3.23-.808-1.52.5-2.484 1.556-3.636 2.426-2.523 5.272-4.018 17.99 4.039 18.208zm35.545 48.956c-3.835-.067-7.272.267-10.502.81-1.665-.32-.758 1.936-2.422 1.617a9.808 9.808 0 0 0-2.021 2.024c.037.574.067 1.147-.403 1.213.103 6.234 1.666 11.01 3.231 15.783.793 5.544 2.615 10.055 4.04 14.967 2.8 9.739 4.915 20.161 6.865 30.747.3 1.382-1.487.67-1.613 1.62-1.007-.06-1.25.639-2.02.809-1.21 1.217-1.8 3.053-3.637 3.644-.708 1.984-2.071 3.316-2.423 5.663-2.507-.32-3.17-2.487-4.444-4.045-1.646-1.047-2.206-3.184-4.443-3.641-1.95-1.265-3.802 1.651-5.25.81-.922-5.012-3.243-8.623-4.04-13.758-1.448-4.482-2.401-9.462-4.443-13.352a22.946 22.946 0 0 0-6.867-6.88h-4.443c-2.159 1.615-2.698 4.853-4.04 7.286-.86 2.776-1.47 5.812-2.423 8.495-.972 6.444-2.896 11.937-3.636 18.614-1.376.762-2.711-1.452-4.846-1.215-2.519-.229-4.257.319-6.06.81-2.049.914-3.285 2.639-4.442 4.449-1.193 1.639-1.455 4.21-3.636 4.856-1.412-2.77-3.162-5.199-4.847-7.69-1.397-.487-2.678-1.091-4.849-.807-1.51-8.603-.53-19.698-.808-29.54.627-6.852.882-13.24 1.617-19.824.705-6.303 1.343-12.82 1.21-19.824-.357-.179-.72-.355-.805-.81-2.178-2.293-8.137-1.856-12.927-1.616-1.907.094-3.635.688-5.252.404-1.9-.66-2.918-2.202-3.635-4.046 5.084-.573 9.479-1.833 10.905-6.069v-2.833c-.59-5.071-6.845-4.47-6.058-10.924 6.864-1.23 17.809 1.542 25.854.405 3.131-1.449 4.866-4.292 5.25-8.497-.344-1.948-1.959-2.623-2.829-4.047-1.438-.85-2.1-2.48-3.231-3.639a39.444 39.444 0 0 1-5.252-8.497c-.404-2.022-.948-3.903-.807-6.474 1.728-9.733 7.798-15.115 13.735-20.634 6.627-4.69 13.45-9.184 24.235-9.71.725.05.852-.496 1.615-.405 3.882-.004 7.493.72 10.504 2.021.758.33 1.27.8 2.02 1.216.576.318 1.566.489 2.02.81.463.325 1.106 1.198 1.616 1.615 1.109.917 1.475 1.267 2.422 2.43a31.09 31.09 0 0 1 2.02 2.832c.52.823.802 1.636 1.21 2.426.278.537.553.59.81 1.62.158.639 1.242 3.098 1.615 4.448.068.254-.064.558 0 .812.768 3.073 1.631 8.223 1.212 13.352-.419 4.975-2.007 8.776-3.637 12.54-1.218.939-1.777 2.536-3.23 3.237-.125.955-1.402.755-1.212 2.025-.697.244.032 1.919-.808 2.022.887 2.214 2.337 3.861 4.04 5.262 5.681 1.32 12.995 1.007 19.388 1.616 1.388.177 2.265-.159 3.233-.404.835-.24 2.652.5 2.825-.407 1.329.844-.681 1.71-.808 2.43-.67.541-.133 2.292-.806 2.833.481 4.237 3.555 5.877 4.038 10.114-2.448.784-4.667 1.798-6.462 3.238-.273 1.072-.636 2.059-1.213 2.83-.332 1.452.912 1.958 0 2.833zm0 73.234c.17 4.012.97 7.394.81 11.733-.78 5.018-1.548 10.05-3.635 13.758-1.85-.177-3.425-.618-5.657-.41-.841-.634-1.645-1.315-2.826-1.614-2.552-2.976-5.3-5.752-7.27-9.308-.606-2.092-1.859-3.533-2.427-5.661-1.025-1.391-2.263-4.095-.805-5.666 1.523.09 1.151 2.078 2.423 2.425.178 1.443 1.46 1.775 2.017 2.835 1.145 1.96 2.585 3.62 4.846 4.45h2.022c4.495-1.297 6.287-5.303 7.272-10.114.815-.805 1.318-1.915 2.423-2.428h.807zm-59.78 16.185c-.672.406-.439 1.718-.809 2.426-.321.756-.674 1.482-.808 2.426-1.163.86-1.043 3-2.423 3.642-2.085.88-5.743.182-8.482.403-.845-.77-1.931-1.3-3.232-1.615-1.233-1.193-2.026-2.83-3.231-4.045-.6-2.637-1.7-4.776-2.425-7.283-.294-2.356-1.737-5.424-1.21-7.284 1.968.187 1.5 2.811 2.825 3.643.632 1.522 1.575 2.736 2.425 4.045 1.276.205 1.773 1.19 3.231 1.212 6.544-.187 6.7-6.773 10.504-9.71h3.635c.98 1.04 2.13 1.91 3.231 2.832-.551 3.632-2.701 5.657-3.231 9.308zM29.933 86.201c-.709 1.843-1.887 4.493-.81 6.877-9.963.404-18.68-.436-21.812-6.877-.715-2.021-.48-5.619 0-7.687 1.258-1.975 3-3.47 4.442-5.26 1.728-.563 2.796-1.787 4.848-2.024 1.62-.536 3.75-.56 5.25-1.214 1.629-.258 4.299.526 5.252-.404 1.625-.258 4.296.525 5.252-.404h1.211c-.04 1.658-.08 3.318.403 4.45.664 1.629 1.854 2.729 2.829 4.046 1.171 1.122 3.065 1.518 3.233 3.643-2.415 2.574-8.048 1.92-10.098 4.854zm124.41-20.634h2.827c.921.556 1.52-1.043 1.616 0 7.149.122 13.79.752 16.562 5.259.17 4.082-1.124 6.698-2.02 9.711-1.844 1.93-4.293 3.252-6.465 4.856-1.629.256-2.037 1.732-4.037 1.616-.81.945-2.828.675-3.636 1.62-3.277-.18-4.957 1.237-8.077 1.213-.64.843-2.828.137-3.637.808-1.64.162-2.815-.148-2.828-1.616 4.221-.629 7.758-1.94 8.482-6.07-.157-4.966-3.315-6.93-4.442-10.923 2.833-1.208 4.687-3.397 5.655-6.474zm-4.847 32.773c12.437-1.032 22.26-4.676 29.485-10.925 2.505-3.292 4.972-6.62 6.059-11.327.203-3.172-.115-5.82-.807-8.093-4.173-8.36-14.298-10.763-25.043-12.543-5.98-.056-11.9-.053-17.37.404-2.58.381-5.224.7-8.077.808-.657.83-2.982-.016-3.637.81h-2.423c-.752-.384-1.35 1.212-1.619 0 2.532-5.287 4.639-11.003 4.85-18.609.109-5.482-.963-11.158-2.02-14.973-.405-1.457-.793-2.907-1.211-4.047-.932-2.532-2.5-4.69-3.635-6.472-.288-.45-.412-.484-.808-.808-.134-.112.103-.665 0-.81-.299-.41-.89-.816-1.212-1.213-1.047-1.296-1.754-1.897-2.827-2.832-.565-.494-1.033-1.17-1.618-1.62-1.88-1.445-3.78-2.32-5.652-3.238-.22-.105.017-.297-.405-.402-.24-.062-.585.097-.808 0-.197-.085-.562-.718-.809-.808-.7-.264-1.698-.205-2.423-.406-.783-.217-1.672-.65-2.423-.811C101.8-.273 98.066.126 94.156.02 74.116 3.28 61.473 13.947 53.36 29.152c-.2 2.227-1.246 3.608-1.614 5.666.281 1.765-.689 2.277-.405 4.047.094 3.407.99 6.018 1.616 8.9 1.793 2.923 3.425 6.008 5.655 8.497a18.498 18.498 0 0 0 3.634 3.64c.61 1.437 3.595 2.4 1.616 4.046-2.466.888-5.15-1.242-8.483-.808-.565-1.187-3.877.376-4.442-.81h-5.252c-7.026-.16-13.594.139-19.388 1.212H19.43c-3.799.646-7.037 1.855-10.099 3.236-.52 1.102-2.068 1.168-2.425 2.43-.811.805-1.318 1.914-2.421 2.43-1.637 1.73-2.822 3.916-4.04 6.066-.685 3.711-.599 8.906.403 12.138 1.443 2.733 3.76 4.6 5.653 6.878.945.136 1.742.414 2.02 1.212 3.572 1.283 7.313 2.39 11.715 2.835h15.35c2.187-.372 4.527-.59 6.867-.81.968-.245 1.841-.58 3.231-.404 1.542.36 2.579-.66 3.232 0-1.431 15.695-3.748 30.5-3.231 48.148-.88 7.671.081 16.875.808 24.275.028 4.286 1.116 7.513 1.615 11.33.62 1.538.878 3.435 1.617 4.854.446 1.707 1.454 2.856 2.02 4.452 4.458 4.165 10.205 7.04 18.176 7.688 4.688-.565 8.325-2.179 11.713-4.047 2.514-3.147 4.397-6.925 5.656-11.332.53-1.893.414-4.437.403-6.876 1.778-6.713 3.02-13.97 4.445-21.037a163.384 163.384 0 0 1 2.018-10.52c.352-1.807 1-3.314 1.213-5.26.88-1.276.64-3.677 2.019-4.45 1.723 5.013 2.28 11.2 3.233 16.992 1.345 5.527 2.187 11.565 4.038 16.59 1.1 5.641 3.537 9.943 5.25 14.967 1.599 1.773 2.375 4.367 4.042 6.068 1.399 2.105 3.602 3.406 5.25 5.262 4.469 1.725 8.42 3.975 14.945 3.643 4.722-1.883 8.172-5.03 10.907-8.905 1.09-5.244 2.83-9.84 3.228-15.78-.232-15.403-3.303-27.976-6.462-40.456-.981-.903-1.13-2.641-1.613-4.047-.756-1.265-.826-3.217-1.618-4.449-.537-3.374-1.633-6.187-2.422-9.31-1.061-6.89-3.355-12.553-4.443-19.42 5.306.756 11.848.272 17.773.407z" mask="url(#b)"/>
    </g>
</svg>
